<?xml version="1.0" encoding="utf-8"?>
<svg width="155px" height="293px" viewbox="0 0 155 293" version="1.1" xmlns:xlink="http://www.w3.org/1999/xlink" xmlns="http://www.w3.org/2000/svg">
  <defs>
    <linearGradient x1="0.5" y1="0" x2="0.5" y2="1" id="gradient_1">
      <stop offset="0" stop-color="#454545" />
      <stop offset="0.22627911" stop-color="#999999" />
      <stop offset="1" stop-color="#FFFFFF" />
    </linearGradient>
    <linearGradient x1="1" y1="0.5" x2="0.3070163" y2="0.5" id="gradient_2">
      <stop offset="0" stop-color="#FFFFFF" stop-opacity="0" />
      <stop offset="0.22217794" stop-color="#BABABA" />
      <stop offset="0.54678047" stop-color="#FFFFFF" stop-opacity="0" />
      <stop offset="1" stop-color="#FFFFFF" stop-opacity="0" />
    </linearGradient>
    <linearGradient x1="1" y1="0.5" x2="0.3059087" y2="0.5" id="gradient_3">
      <stop offset="0" stop-color="#FFFFFF" stop-opacity="0" />
      <stop offset="0.22217794" stop-color="#BABABA" />
      <stop offset="0.54678047" stop-color="#FFFFFF" stop-opacity="0" />
      <stop offset="1" stop-color="#FFFFFF" stop-opacity="0" />
    </linearGradient>
    <filter filterUnits="userSpaceOnUse" color-interpolation-filters="sRGB" id="filter_1">
      <feFlood flood-opacity="0" result="BackgroundImageFix" />
      <feColorMatrix in="SourceAlpha" type="matrix" values="0 0 0 0 0 0 0 0 0 0 0 0 0 0 0 0 0 0 127 0" />
      <feOffset dx="25" dy="25" />
      <feGaussianBlur stdDeviation="40" />
      <feColorMatrix type="matrix" values="0 0 0 0 0.21176471 0 0 0 0 0.3254902 0 0 0 0 0.41960785 0 0 0 0.3019608 0" />
      <feBlend mode="normal" in2="BackgroundImageFix" result="effect0_dropShadow" />
      <feBlend mode="normal" in="SourceGraphic" in2="effect0_dropShadow" result="shape" />
    </filter>
    <filter filterUnits="userSpaceOnUse" color-interpolation-filters="sRGB" id="filter_2">
      <feFlood flood-opacity="0" result="BackgroundImageFix" />
      <feColorMatrix in="SourceAlpha" type="matrix" values="0 0 0 0 0 0 0 0 0 0 0 0 0 0 0 0 0 0 127 0" />
      <feOffset dx="10" dy="10" />
      <feGaussianBlur stdDeviation="12.5" />
      <feColorMatrix type="matrix" values="0 0 0 0 0.21176471 0 0 0 0 0.3254902 0 0 0 0 0.41960785 0 0 0 0.2509804 0" />
      <feBlend mode="normal" in2="BackgroundImageFix" result="effect0_dropShadow" />
      <feBlend mode="normal" in="SourceGraphic" in2="effect0_dropShadow" result="shape" />
    </filter>
    <path d="M54.0969 0L11.094 8.77908e-14C4.67624 8.77908e-14 0 4.38671 0 10.116L0 255.102C0 262.572 7.22564 269.191 15.396 269.191L119.041 269.191C126.911 269.191 134.437 262.521 134.437 255.102L134.437 10.7782C134.437 3.91125 129.357 0.0408364 123.343 8.77908e-14L79.6583 1.19545e-13C79.4928 0.0272243 76.492 1.26541 75.2237 4.38671C73.9554 7.50801 71.4034 9.99621 68.6094 9.99621L65.3642 9.99621C64.0361 9.99621 60.5396 8.70299 58.7691 4.38671C56.9986 0.0704314 54.2624 0.0272243 54.0969 0Z" id="path_1" />
    <clipPath id="mask_1">
      <use xlink:href="#path_1" />
    </clipPath>
  </defs>
  <g id="Group-38" transform="translate(1.5 1.5)">
    <g id="Group-2-Copy-3">
      <g id="iPhone-X-Mockup">
        <g id="phone">
          <path d="M19.1925 0L129.715 0C140.315 -1.54354e-14 148.908 8.2565 148.908 18.4414L148.908 270.898C148.908 281.083 140.315 289.339 129.715 289.339L19.1925 289.339C8.59279 289.339 1.17561e-15 281.083 0 270.898L0 18.4414C-1.32257e-15 8.2565 8.59279 1.87094e-15 19.1925 0Z" transform="translate(1.4841297 0.33029613)" id="body" fill="#213648" fill-rule="evenodd" stroke="none" filter="url(#filter_1)" />
          <g id="frame" transform="translate(1.4841297 0)">
            <path d="M125.839 0L14.3955 0C9.19246 0.318394 4.39398 2.70102 0 7.14789C2.82583 4.67242 7.86598 1.35985 14.5296 1.35985C14.5296 1.35985 121.262 1.35985 125.705 1.35985C132.368 1.35985 137.408 4.67242 140.234 7.14789C135.84 2.70102 131.042 0.318394 125.839 0Z" transform="translate(4.3038588 0)" id="reflect-frame-top" fill="url(#gradient_1)" fill-opacity="0.38711503" fill-rule="evenodd" stroke="none" />
            <path d="M4.94058 260.52L4.94058 12.4608C4.94058 5.80513 2.50312 3.34472 1.04905 1.76484C-0.405014 0.184953 -0.466903 -0.620859 1.62234 0.571989C3.71159 1.76484 7.89041 5.23907 7.89041 12.4608L7.89041 260.52C7.89041 267.742 3.71159 271.216 1.62234 272.409C-0.466903 273.602 -0.405014 272.796 1.04905 271.216C2.50312 269.637 4.94058 267.176 4.94058 260.52Z" transform="translate(140.95139 7.8286386)" id="reflect-frame-right" fill="url(#gradient_2)" fill-opacity="0.75" fill-rule="evenodd" stroke="none" />
            <path d="M4.94058 260.52L4.94058 12.4608C4.94058 5.80513 2.50312 3.34472 1.04905 1.76484C-0.405014 0.184953 -0.466903 -0.620859 1.62234 0.571989C3.71159 1.76484 7.89041 5.23907 7.89041 12.4608L7.89041 260.52C7.89041 267.742 3.71159 271.216 1.62234 272.409C-0.466903 273.602 -0.405014 272.796 1.04905 271.216C2.50312 269.637 4.94058 267.176 4.94058 260.52Z" transform="matrix(-1 0 0 1 7.890408 7.8286386)" id="reflect-frame-left" fill="url(#gradient_3)" fill-opacity="0.75" fill-rule="evenodd" stroke="none" />
          </g>
          <g id="controls" transform="translate(0 58.79271)">
            <path d="M1.43362 0L1.43562 0Q1.50605 0 1.57614 0.00690327Q1.64623 0.0138065 1.7153 0.0275466Q1.78438 0.0412867 1.85178 0.0617312Q1.91917 0.0821757 1.98424 0.109128Q2.04931 0.13608 2.11142 0.16928Q2.17354 0.20248 2.2321 0.241608Q2.29066 0.280737 2.3451 0.325417Q2.39954 0.370097 2.44934 0.419897Q2.49914 0.469698 2.54382 0.524141Q2.5885 0.578583 2.62763 0.637143Q2.66676 0.695703 2.69996 0.757816Q2.73316 0.819929 2.76011 0.884997Q2.78706 0.950065 2.80751 1.01746Q2.82795 1.08486 2.84169 1.15393Q2.85543 1.22301 2.86234 1.2931Q2.86924 1.36319 2.86924 1.43362L2.86924 35.8898Q2.86924 35.9603 2.86234 36.0304Q2.85543 36.1005 2.84169 36.1695Q2.82795 36.2386 2.80751 36.306Q2.78706 36.3734 2.76011 36.4385Q2.73316 36.5035 2.69996 36.5656Q2.66676 36.6278 2.62763 36.6863Q2.5885 36.7449 2.54382 36.7993Q2.49914 36.8538 2.44934 36.9036Q2.39954 36.9534 2.3451 36.998Q2.29066 37.0427 2.2321 37.0818Q2.17354 37.121 2.11142 37.1542Q2.04931 37.1874 1.98424 37.2143Q1.91917 37.2413 1.85178 37.2617Q1.78438 37.2822 1.7153 37.2959Q1.64623 37.3097 1.57614 37.3166Q1.50605 37.3235 1.43562 37.3235L1.43362 37.3235Q1.36319 37.3235 1.2931 37.3166Q1.22301 37.3097 1.15393 37.2959Q1.08486 37.2822 1.01746 37.2617Q0.950065 37.2413 0.884997 37.2143Q0.819929 37.1874 0.757816 37.1542Q0.695703 37.121 0.637143 37.0818Q0.578583 37.0427 0.524141 36.998Q0.469698 36.9534 0.419897 36.9036Q0.370097 36.8538 0.325417 36.7993Q0.280737 36.7449 0.241608 36.6863Q0.20248 36.6278 0.16928 36.5656Q0.13608 36.5035 0.109128 36.4385Q0.0821757 36.3734 0.0617312 36.306Q0.0412867 36.2386 0.0275466 36.1695Q0.0138065 36.1005 0.00690327 36.0304Q0 35.9603 0 35.8898L0 1.43362Q0 1.36319 0.00690327 1.2931Q0.0138065 1.22301 0.0275466 1.15393Q0.0412867 1.08486 0.0617312 1.01746Q0.0821757 0.950065 0.109128 0.884997Q0.13608 0.819929 0.16928 0.757816Q0.20248 0.695703 0.241608 0.637143Q0.280737 0.578583 0.325417 0.524141Q0.370097 0.469698 0.419897 0.419897Q0.469698 0.370097 0.524141 0.325417Q0.578583 0.280737 0.637143 0.241608Q0.695703 0.20248 0.757816 0.16928Q0.819929 0.13608 0.884997 0.109128Q0.950065 0.0821757 1.01746 0.0617312Q1.08486 0.0412867 1.15393 0.0275466Q1.22301 0.0138065 1.2931 0.00690327Q1.36319 0 1.43362 0L1.43362 0Z" transform="translate(0 0.110056795)" id="vol+" fill="#2E423C" fill-rule="evenodd" stroke="none" />
            <path d="M1.43362 0L1.43562 0Q1.50605 0 1.57614 0.00690327Q1.64623 0.0138065 1.7153 0.0275466Q1.78438 0.0412867 1.85178 0.0617312Q1.91917 0.0821757 1.98424 0.109128Q2.04931 0.13608 2.11142 0.16928Q2.17354 0.20248 2.2321 0.241608Q2.29066 0.280737 2.3451 0.325417Q2.39954 0.370097 2.44934 0.419897Q2.49914 0.469698 2.54382 0.524141Q2.5885 0.578583 2.62763 0.637143Q2.66676 0.695703 2.69996 0.757816Q2.73316 0.819929 2.76011 0.884997Q2.78706 0.950065 2.80751 1.01746Q2.82795 1.08486 2.84169 1.15393Q2.85543 1.22301 2.86234 1.2931Q2.86924 1.36319 2.86924 1.43362L2.86924 25.7974Q2.86924 25.8678 2.86234 25.9379Q2.85543 26.008 2.84169 26.0771Q2.82795 26.1462 2.80751 26.2136Q2.78706 26.281 2.76011 26.346Q2.73316 26.4111 2.69996 26.4732Q2.66676 26.5353 2.62763 26.5939Q2.5885 26.6524 2.54382 26.7069Q2.49914 26.7613 2.44934 26.8111Q2.39954 26.8609 2.3451 26.9056Q2.29066 26.9503 2.2321 26.9894Q2.17354 27.0285 2.11142 27.0617Q2.04931 27.0949 1.98424 27.1219Q1.91917 27.1488 1.85178 27.1693Q1.78438 27.1897 1.7153 27.2035Q1.64623 27.2172 1.57614 27.2241Q1.50605 27.231 1.43562 27.231L1.43362 27.231Q1.36319 27.231 1.2931 27.2241Q1.22301 27.2172 1.15393 27.2035Q1.08486 27.1897 1.01746 27.1693Q0.950065 27.1488 0.884997 27.1219Q0.819929 27.0949 0.757816 27.0617Q0.695703 27.0285 0.637143 26.9894Q0.578583 26.9503 0.524141 26.9056Q0.469698 26.8609 0.419897 26.8111Q0.370097 26.7613 0.325417 26.7069Q0.280737 26.6524 0.241608 26.5939Q0.20248 26.5353 0.16928 26.4732Q0.13608 26.4111 0.109128 26.346Q0.0821757 26.281 0.0617312 26.2136Q0.0412867 26.1462 0.0275466 26.0771Q0.0138065 26.008 0.00690327 25.9379Q0 25.8678 0 25.7974L0 1.43362Q0 1.36319 0.00690327 1.2931Q0.0138065 1.22301 0.0275466 1.15393Q0.0412867 1.08486 0.0617312 1.01746Q0.0821757 0.950065 0.109128 0.884997Q0.13608 0.819929 0.16928 0.757816Q0.20248 0.695703 0.241608 0.637143Q0.280737 0.578583 0.325417 0.524141Q0.370097 0.469698 0.419897 0.419897Q0.469698 0.370097 0.524141 0.325417Q0.578583 0.280737 0.637143 0.241608Q0.695703 0.20248 0.757816 0.16928Q0.819929 0.13608 0.884997 0.109128Q0.950065 0.0821757 1.01746 0.0617312Q1.08486 0.0412867 1.15393 0.0275466Q1.22301 0.0138065 1.2931 0.00690327Q1.36319 0 1.43362 0L1.43362 0Z" transform="translate(148.84178 30.552391)" id="power" fill="#2E423C" fill-rule="evenodd" stroke="none" />
          </g>
        </g>
        <g id="Screen" transform="translate(8.712118 7.2177987)">
          <path d="M54.0969 0L11.094 8.77908e-14C4.67624 8.77908e-14 0 4.38671 0 10.116L0 255.102C0 262.572 7.22564 269.191 15.396 269.191L119.041 269.191C126.911 269.191 134.437 262.521 134.437 255.102L134.437 10.7782C134.437 3.91125 129.357 0.0408364 123.343 8.77908e-14L79.6583 1.19545e-13C79.4928 0.0272243 76.492 1.26541 75.2237 4.38671C73.9554 7.50801 71.4034 9.99621 68.6094 9.99621L65.3642 9.99621C64.0361 9.99621 60.5396 8.70299 58.7691 4.38671C56.9986 0.0704314 54.2624 0.0272243 54.0969 0Z" id="Screen-Mask" fill="#36536B" fill-rule="evenodd" stroke="none" />
        </g>
      </g>
    </g>
    <g id="Group-39" transform="translate(24.851711 82.36)">
      <g id="Group-33">
        <g id="Group-34">
          <path d="M1.999 0L99.7196 0Q99.8178 0 99.9156 0.00962573Q100.013 0.0192515 100.11 0.0384102Q100.206 0.057569 100.3 0.0860763Q100.394 0.114584 100.485 0.152165Q100.575 0.189746 100.662 0.236039Q100.749 0.282333 100.83 0.336892Q100.912 0.391452 100.988 0.453752Q101.064 0.516052 101.133 0.585494Q101.203 0.654935 101.265 0.730848Q101.327 0.806761 101.382 0.888415Q101.436 0.970069 101.483 1.05668Q101.529 1.14329 101.566 1.23402Q101.604 1.32474 101.633 1.41872Q101.661 1.5127 101.68 1.60901Q101.699 1.70533 101.709 1.80306Q101.719 1.9008 101.719 1.999L101.719 108.781Q101.719 108.879 101.709 108.977Q101.699 109.075 101.68 109.171Q101.661 109.267 101.633 109.361Q101.604 109.455 101.566 109.546Q101.529 109.637 101.483 109.723Q101.436 109.81 101.382 109.892Q101.327 109.973 101.265 110.049Q101.203 110.125 101.133 110.194Q101.064 110.264 100.988 110.326Q100.912 110.389 100.83 110.443Q100.749 110.498 100.662 110.544Q100.575 110.59 100.485 110.628Q100.394 110.665 100.3 110.694Q100.206 110.722 100.11 110.742Q100.013 110.761 99.9156 110.77Q99.8178 110.78 99.7196 110.78L1.999 110.78Q1.9008 110.78 1.80306 110.77Q1.70533 110.761 1.60901 110.742Q1.5127 110.722 1.41872 110.694Q1.32474 110.665 1.23402 110.628Q1.14329 110.59 1.05668 110.544Q0.970069 110.498 0.888415 110.443Q0.806761 110.389 0.730848 110.326Q0.654935 110.264 0.585494 110.195Q0.516052 110.125 0.453752 110.049Q0.391452 109.973 0.336892 109.892Q0.282333 109.81 0.236039 109.723Q0.189746 109.637 0.152165 109.546Q0.114584 109.455 0.0860763 109.361Q0.057569 109.267 0.0384102 109.171Q0.0192515 109.075 0.00962573 108.977Q0 108.879 0 108.781L0 1.999Q0 1.9008 0.00962573 1.80306Q0.0192515 1.70533 0.0384102 1.60901Q0.057569 1.5127 0.0860763 1.41872Q0.114584 1.32474 0.152165 1.23402Q0.189746 1.14329 0.236039 1.05668Q0.282333 0.970069 0.336892 0.888415Q0.391452 0.806761 0.453752 0.730848Q0.516052 0.654935 0.585494 0.585494Q0.654935 0.516052 0.730848 0.453752Q0.806761 0.391452 0.888415 0.336892Q0.970069 0.282333 1.05668 0.236039Q1.14329 0.189746 1.23402 0.152165Q1.32474 0.114584 1.41872 0.0860763Q1.5127 0.057569 1.60901 0.0384102Q1.70533 0.0192515 1.80306 0.00962573Q1.9008 0 1.999 0L1.999 0Z" id="Rectangle" fill="#FBFCFE" fill-rule="evenodd" stroke="none" filter="url(#filter_2)" />
          <g id="Group-32" transform="translate(11.091255 20.88)">
            <path d="M8.79058 6.23181L8.79058 4.23371L9.96266 4.23371C10.3433 4.23371 10.6783 4.16648 10.9676 4.03201C11.2568 3.89755 11.4822 3.70277 11.6438 3.44766C11.8053 3.19256 11.8861 2.88405 11.8861 2.52213C11.8861 2.14513 11.7978 1.82719 11.6212 1.56832C11.4447 1.30945 11.203 1.11341 10.8962 0.9802C10.5894 0.846993 10.2419 0.78039 9.85371 0.78039L9.85371 0.78039L7.97163 0.78039L7.97163 6.23181L8.79058 6.23181ZM9.94011 3.57396L8.78682 3.57396L8.78682 1.4326L9.91006 1.4326C10.2607 1.4326 10.5487 1.52245 10.7741 1.70215C10.9995 1.88186 11.1122 2.1401 11.1122 2.47689C11.1122 2.80865 11.0032 3.07444 10.7854 3.27425C10.5675 3.47406 10.2857 3.57396 9.94011 3.57396L9.94011 3.57396ZM13.5965 6.30721C13.8745 6.30721 14.1243 6.25003 14.3459 6.13568C14.5676 6.02132 14.751 5.8146 14.8963 5.51551L14.8963 5.51551L14.9601 6.23181L15.6401 6.23181L15.6401 3.5061C15.6401 3.23969 15.5844 3.01349 15.4729 2.8275C15.3615 2.64151 15.1918 2.50014 14.9639 2.40337C14.736 2.30661 14.4455 2.25823 14.0924 2.25823C13.7743 2.25823 13.4976 2.30347 13.2621 2.39395C13.0267 2.48443 12.842 2.61826 12.708 2.79545C12.574 2.97265 12.4995 3.19068 12.4845 3.44955L12.4845 3.44955L13.1832 3.44955C13.2333 3.23089 13.3391 3.07381 13.5007 2.9783C13.6622 2.88279 13.8469 2.83504 14.0548 2.83504C14.3303 2.83253 14.5344 2.89536 14.6671 3.02354C14.7999 3.15172 14.8662 3.32765 14.8662 3.55134L14.8662 3.55134L14.8662 3.83409L14.2276 3.85294C13.5589 3.86551 13.0718 3.97861 12.7663 4.19224C12.4607 4.40587 12.3079 4.72884 12.3079 5.16113C12.3079 5.40241 12.363 5.6085 12.4732 5.77941C12.5834 5.95032 12.7356 6.08101 12.9297 6.17149C13.1238 6.26197 13.346 6.30721 13.5965 6.30721ZM13.8482 5.74548C13.6278 5.74548 13.445 5.68705 13.2997 5.57018C13.1544 5.45331 13.0818 5.29057 13.0818 5.08196C13.0818 4.89849 13.1313 4.75146 13.2302 4.64087C13.3291 4.53028 13.4719 4.4486 13.6585 4.39582C13.845 4.34304 14.0723 4.31539 14.3403 4.31288L14.3403 4.31288L14.8662 4.30157L14.8662 4.94624C14.8637 5.04677 14.833 5.14479 14.7742 5.2403C14.7153 5.33581 14.6371 5.42189 14.5394 5.49854C14.4417 5.5752 14.3328 5.63552 14.2126 5.6795C14.0924 5.72349 13.9709 5.74548 13.8482 5.74548ZM17.0256 7.47591C17.2109 7.47591 17.3824 7.44701 17.5402 7.3892C17.698 7.33139 17.8426 7.22835 17.9741 7.08006C18.1056 6.93177 18.2264 6.72191 18.3366 6.45047L18.3366 6.45047L19.9558 2.33363L19.1669 2.33363L18.0849 5.21391L16.9955 2.33363L16.1916 2.33363L17.7055 6.11871L17.5853 6.4467C17.5703 6.48943 17.5477 6.53592 17.5177 6.58619C17.4876 6.63646 17.4444 6.68358 17.3881 6.72757C17.3317 6.77155 17.2553 6.80611 17.1589 6.83124C17.0625 6.85637 16.9392 6.86517 16.7889 6.85763L16.7889 6.85763L16.3944 6.85009L16.3944 7.37035C16.3944 7.37035 16.4402 7.38794 16.5316 7.42313C16.623 7.45832 16.7876 7.47591 17.0256 7.47591ZM21.3971 6.23181L21.3971 3.6569C21.3971 3.48851 21.439 3.3509 21.5229 3.24408C21.6068 3.13727 21.7114 3.05873 21.8366 3.00846C21.9618 2.95819 22.0871 2.93306 22.2123 2.93306C22.325 2.93306 22.4383 2.95756 22.5523 3.00658C22.6662 3.05558 22.7614 3.1291 22.8378 3.22712C22.9142 3.32514 22.9524 3.44578 22.9524 3.58904L22.9524 3.58904L22.9524 6.23181L23.7563 6.23181L23.7563 3.6569C23.7563 3.47594 23.8001 3.33268 23.8878 3.22712C23.9754 3.12156 24.0819 3.04616 24.2071 3.00092C24.3323 2.95568 24.4525 2.93306 24.5677 2.93306C24.6954 2.93306 24.8163 2.95756 24.9302 3.00658C25.0442 3.05558 25.1368 3.14041 25.2082 3.26105C25.2796 3.38169 25.3153 3.54883 25.3153 3.76246L25.3153 3.76246L25.3153 6.23181L26.123 6.23181L26.123 3.67575C26.123 3.39426 26.0835 3.16177 26.0046 2.9783C25.9257 2.79483 25.8231 2.65094 25.6966 2.54663C25.5701 2.44233 25.433 2.36819 25.2852 2.3242C25.1375 2.28022 24.9947 2.25823 24.857 2.25823C24.6015 2.25823 24.3711 2.31729 24.1658 2.43542C23.9604 2.55355 23.7963 2.7056 23.6736 2.89159C23.6035 2.75336 23.5077 2.63712 23.3862 2.54287C23.2648 2.44862 23.132 2.37761 22.988 2.32986C22.844 2.28211 22.7019 2.25823 22.5617 2.25823C22.2611 2.25823 22.0157 2.32169 21.8254 2.44862C21.635 2.57554 21.4848 2.72445 21.3746 2.89536L21.3746 2.89536L21.3746 2.33363L20.5932 2.33363L20.5932 6.23181L21.3971 6.23181ZM28.7599 6.30721C29.0178 6.30721 29.2645 6.26009 29.4999 6.16584C29.7353 6.07159 29.9363 5.93147 30.1029 5.74548C30.2694 5.55949 30.3752 5.33329 30.4203 5.06688L30.4203 5.06688L29.6765 5.06688C29.6239 5.27549 29.5131 5.43257 29.344 5.53813C29.175 5.64369 28.9753 5.69647 28.7448 5.69647C28.5144 5.69647 28.3216 5.64306 28.1663 5.53625C28.011 5.42943 27.8952 5.28366 27.8188 5.09893C27.7424 4.9142 27.7042 4.70496 27.7042 4.47122L27.7042 4.47122L30.4391 4.47122L30.4391 4.20355C30.4391 3.80896 30.3727 3.46652 30.24 3.17623C30.1073 2.88594 29.9125 2.66036 29.6558 2.49951C29.3991 2.33866 29.0829 2.25823 28.7073 2.25823C28.3266 2.25823 28.001 2.3462 27.7305 2.52213C27.4601 2.69806 27.2535 2.94123 27.1107 3.25163C26.9679 3.56202 26.8966 3.91954 26.8966 4.32419C26.8966 4.73386 26.9748 5.08699 27.1314 5.38356C27.2879 5.68013 27.5064 5.90822 27.7869 6.06782C28.0674 6.22741 28.3917 6.30721 28.7599 6.30721ZM29.6727 3.94719L27.7042 3.94719C27.7042 3.76874 27.7412 3.59532 27.8151 3.42693C27.889 3.25854 27.9998 3.1203 28.1475 3.01223C28.2953 2.90416 28.4806 2.85012 28.7035 2.85012C28.9214 2.85012 29.1024 2.8985 29.2464 2.99527C29.3904 3.09203 29.4974 3.22398 29.5675 3.39112C29.6377 3.55825 29.6727 3.74361 29.6727 3.94719L29.6727 3.94719ZM32.0826 6.23181L32.0826 3.6569C32.0826 3.49605 32.1264 3.36221 32.2141 3.25539C32.3017 3.14858 32.4169 3.06878 32.5597 3.016C32.7024 2.96322 32.8527 2.93683 33.0105 2.93683C33.2459 2.93683 33.4381 3.00469 33.5871 3.14041C33.7361 3.27613 33.8107 3.48348 33.8107 3.76246L33.8107 3.76246L33.8107 6.23181L34.6146 6.23181L34.6146 3.67575C34.6146 3.35153 34.552 3.087 34.4267 2.88216C34.3015 2.67733 34.1356 2.52653 33.929 2.42976C33.7224 2.333 33.4976 2.28462 33.2547 2.28462C33.0493 2.28462 32.8684 2.31352 32.7118 2.37133C32.5553 2.42914 32.4238 2.50454 32.3174 2.59753C32.2109 2.69052 32.1264 2.7898 32.0638 2.89536L32.0638 2.89536L32.0638 2.33363L31.2787 2.33363L31.2787 6.23181L32.0826 6.23181ZM36.9073 6.2582C37.0625 6.2582 37.1897 6.25066 37.2886 6.23558C37.3875 6.2205 37.462 6.20291 37.5121 6.1828L37.5121 6.1828L37.5121 5.65877L37.0575 5.65877C36.9473 5.65877 36.8603 5.6506 36.7965 5.63427C36.7326 5.61793 36.6875 5.58023 36.6612 5.52117C36.6349 5.4621 36.6218 5.36848 36.6218 5.2403L36.6218 5.2403L36.618 2.91421L37.4896 2.91421L37.4896 2.32986L36.618 2.32986L36.618 1.18755L36.0357 1.18755L35.8366 2.33363L35.183 2.33363L35.183 2.91421L35.8141 2.91421L35.8141 5.27046C35.8141 5.47907 35.8448 5.65689 35.9061 5.80392C35.9675 5.95095 36.0777 6.06342 36.2367 6.14133C36.3957 6.21924 36.6193 6.2582 36.9073 6.2582ZM41.5093 6.30721C41.8975 6.30721 42.225 6.22239 42.4917 6.05274C42.7584 5.88309 42.9613 5.64746 43.1003 5.34586C43.2393 5.04426 43.3088 4.69616 43.3088 4.30157C43.3088 3.86928 43.2349 3.50045 43.0871 3.19508C42.9394 2.8897 42.7315 2.65722 42.4635 2.49762C42.1956 2.33803 41.8787 2.25823 41.5131 2.25823C41.1299 2.25823 40.8031 2.34306 40.5326 2.51271C40.2621 2.68235 40.0561 2.92049 39.9146 3.22712C39.7731 3.53375 39.7024 3.8919 39.7024 4.30157C39.7024 4.72632 39.7769 5.08824 39.9259 5.38733C40.0749 5.68642 40.2853 5.9145 40.557 6.07159C40.8288 6.22867 41.1462 6.30721 41.5093 6.30721ZM41.5131 5.68516C41.2702 5.68516 41.0736 5.62107 40.9233 5.49289C40.773 5.36471 40.6641 5.1938 40.5965 4.98017C40.5289 4.76654 40.495 4.5328 40.495 4.27895C40.495 3.99243 40.5332 3.74424 40.6096 3.53437C40.686 3.32451 40.7993 3.1624 40.9496 3.04804C41.0999 2.93369 41.2877 2.87651 41.5131 2.87651C41.7535 2.87651 41.9476 2.93934 42.0954 3.06501C42.2431 3.19068 42.3502 3.3597 42.4166 3.57207C42.4829 3.78445 42.5161 4.02008 42.5161 4.27895C42.5161 4.55793 42.4786 4.80361 42.4034 5.01599C42.3283 5.22836 42.2162 5.39298 42.0672 5.50985C41.9182 5.62673 41.7335 5.68516 41.5131 5.68516ZM45.304 6.23181L45.304 2.91421L46.2131 2.91421L46.2131 2.33363L45.289 2.33363L45.289 1.83599C45.289 1.6676 45.3171 1.54256 45.3735 1.46088C45.4298 1.37919 45.5357 1.33835 45.6909 1.33835L45.6909 1.33835L46.2507 1.33835L46.2469 0.78039L45.473 0.78039C45.1525 0.78039 44.9095 0.862702 44.7443 1.02733C44.579 1.19195 44.4963 1.43009 44.4963 1.74174L44.4963 1.74174L44.4963 2.33363L43.7037 2.33363L43.7037 2.91421L44.4963 2.91421L44.4963 6.23181L45.304 6.23181ZM51.1591 6.95188L51.1591 6.27879L51.2146 6.2719C51.3758 6.24835 51.5268 6.21304 51.6677 6.16595L51.8053 6.11494C52.1183 5.98676 52.3606 5.8058 52.5322 5.57206C52.7037 5.33832 52.7895 5.06437 52.7895 4.7502C52.7895 4.34053 52.68 3.99243 52.4608 3.70591C52.2417 3.41939 51.8854 3.21707 51.392 3.09894L51.392 3.09894L50.5167 2.88405C50.2212 2.80614 50.0202 2.72131 49.9138 2.62958C49.8074 2.53784 49.7541 2.4128 49.7541 2.25446C49.7541 2.15393 49.7761 2.06345 49.8199 1.98302C49.8637 1.90259 49.9282 1.83285 50.0134 1.77378C50.0985 1.71472 50.1999 1.66885 50.3176 1.63618C50.4354 1.60351 50.5693 1.58717 50.7196 1.58717C51.0101 1.58717 51.218 1.65629 51.3432 1.79452C51.4684 1.93275 51.5486 2.12251 51.5836 2.36379L51.5836 2.36379L52.6918 2.34494C52.6969 2.04585 52.6186 1.77253 52.4571 1.52496C52.2955 1.2774 52.0651 1.0801 51.7658 0.933075C51.6162 0.85956 51.4526 0.804424 51.2751 0.767666L51.1816 0.75139L51.1817 0L50.2312 0L50.2309 0.74733L50.2074 0.749922C50.0501 0.77485 49.9001 0.812243 49.7574 0.862099L49.617 0.91611C49.2952 1.05183 49.041 1.24473 48.8544 1.4948C48.6678 1.74488 48.5758 2.04083 48.5783 2.38264C48.5833 2.79985 48.7104 3.13224 48.9596 3.37981C49.2088 3.62737 49.54 3.79262 49.9533 3.87556L49.9533 3.87556L50.8436 4.06783C51.109 4.12815 51.3056 4.20795 51.4334 4.30722C51.5611 4.4065 51.625 4.55667 51.625 4.75774C51.625 4.88843 51.5849 5.00467 51.5047 5.10646C51.4246 5.20826 51.315 5.28868 51.176 5.34774C51.037 5.40681 50.8774 5.43634 50.6971 5.43634C50.3965 5.43634 50.1467 5.37162 49.9476 5.24219C49.7485 5.11275 49.6189 4.92362 49.5588 4.6748L49.5588 4.6748L48.4168 4.69742C48.4769 5.24533 48.7098 5.6506 49.1155 5.91325C49.4106 6.10426 49.7706 6.22581 50.1954 6.27791L50.2124 6.27995L50.2125 6.95188L51.1591 6.95188ZM55.4252 6.31475C55.9011 6.31475 56.3106 6.2073 56.6537 5.99241C56.9968 5.77752 57.2604 5.4533 57.4445 5.01975C57.6285 4.58621 57.7206 4.04395 57.7206 3.393C57.7206 2.84761 57.631 2.37322 57.452 1.96982C57.2729 1.56644 57.0162 1.25478 56.6819 1.03487C56.3475 0.814948 55.9499 0.70499 55.4891 0.70499C55.0784 0.70499 54.7202 0.78416 54.4147 0.9425C54.1092 1.10084 53.8712 1.3195 53.7009 1.59848C53.5306 1.87746 53.4455 2.1954 53.4455 2.55229C53.4455 2.90667 53.5263 3.21267 53.6878 3.47028C53.8493 3.7279 54.0722 3.92646 54.3565 4.06594C54.6407 4.20543 54.9669 4.27518 55.3351 4.27518C55.5379 4.27518 55.722 4.24816 55.8873 4.19412C56.0526 4.14009 56.1972 4.06343 56.3212 3.96416C56.4452 3.86488 56.5422 3.74864 56.6124 3.61543C56.6424 4.05024 56.608 4.4021 56.509 4.67103C56.4101 4.93996 56.2624 5.136 56.0658 5.25915C55.8692 5.3823 55.6406 5.44388 55.3802 5.44388C55.1448 5.44388 54.9494 5.3779 54.7941 5.24595C54.6389 5.114 54.5387 4.94247 54.4936 4.73135L54.4936 4.73135L53.4492 4.73135C53.4718 5.05054 53.5757 5.3289 53.7611 5.5664C53.9464 5.80391 54.1856 5.98802 54.4786 6.11871C54.7716 6.2494 55.0872 6.31475 55.4252 6.31475ZM55.5229 3.40054C55.2549 3.40054 55.0383 3.322 54.873 3.16492C54.7077 3.00783 54.6251 2.78729 54.6251 2.50328C54.6251 2.31227 54.6639 2.14387 54.7415 1.9981C54.8192 1.85233 54.9256 1.73923 55.0609 1.6588C55.1961 1.57837 55.3501 1.53816 55.5229 1.53816C55.7108 1.53816 55.8754 1.58466 56.0169 1.67765C56.1584 1.77064 56.2686 1.90448 56.3475 2.07915C56.4264 2.25383 56.4646 2.46307 56.4621 2.70686C56.4621 2.81996 56.4158 2.92929 56.3231 3.03485C56.2304 3.14041 56.1121 3.22775 55.9681 3.29686C55.8241 3.36598 55.6757 3.40054 55.5229 3.40054ZM62.4074 6.23181L62.4074 5.30439L59.6388 5.30439L59.6388 5.25538C59.6388 5.0895 59.6889 4.9475 59.789 4.82937C59.8892 4.71124 60.0219 4.60506 60.1872 4.51081C60.3525 4.41656 60.5335 4.32419 60.7301 4.23371C60.9267 4.14323 61.1239 4.04521 61.3218 3.93965C61.5196 3.83409 61.7012 3.71094 61.8665 3.57019C62.0318 3.42944 62.1645 3.25979 62.2647 3.06124C62.3648 2.86269 62.4149 2.62643 62.4149 2.35248C62.4149 2.02323 62.3348 1.73546 62.1745 1.48915C62.0142 1.24284 61.7869 1.05057 61.4927 0.91234C61.1984 0.774107 60.8484 0.70499 60.4427 0.70499C59.9694 0.70499 59.5762 0.78793 59.2631 0.95381C58.9501 1.11969 58.7153 1.34401 58.5587 1.62675C58.4022 1.90951 58.3214 2.2243 58.3164 2.57114L58.3164 2.57114L59.3645 2.57114C59.4096 2.25195 59.5273 2.01318 59.7177 1.85484C59.908 1.6965 60.1397 1.61733 60.4126 1.61733C60.6756 1.61733 60.8829 1.68645 61.0344 1.82468C61.1859 1.96291 61.2616 2.14136 61.2616 2.36002C61.2616 2.53093 61.2103 2.67921 61.1076 2.80488C61.0049 2.93055 60.8691 3.04428 60.7 3.14607C60.531 3.24786 60.345 3.34902 60.1422 3.44955C59.9393 3.55008 59.7371 3.6569 59.5355 3.77C59.3339 3.8831 59.1485 4.01442 58.9795 4.16397C58.8104 4.31351 58.6746 4.48944 58.5719 4.69177C58.4692 4.89409 58.4179 5.13348 58.4179 5.40995L58.4179 5.40995L58.4179 6.23181L62.4074 6.23181ZM65.1333 6.31475C65.7895 6.31475 66.3016 6.0741 66.6698 5.59279C67.0379 5.11149 67.222 4.4197 67.222 3.51741C67.222 2.6101 67.0354 1.91453 66.6623 1.43071C66.2891 0.946898 65.7795 0.70499 65.1333 0.70499C64.7025 0.70499 64.3306 0.813692 64.0176 1.0311C63.7045 1.2485 63.4629 1.56706 63.2925 1.98679C63.1222 2.40652 63.0371 2.91798 63.0371 3.52118C63.0371 4.42347 63.2218 5.11463 63.5912 5.59468C63.9606 6.07473 64.4746 6.31475 65.1333 6.31475ZM65.1333 5.41372C64.8077 5.41372 64.5673 5.26795 64.412 4.9764C64.2568 4.68485 64.1791 4.19978 64.1791 3.52118C64.1791 2.83001 64.2574 2.33237 64.4139 2.02826C64.5704 1.72415 64.809 1.57209 65.1296 1.57209C65.4501 1.57209 65.6868 1.72289 65.8396 2.02449C65.9923 2.32609 66.0687 2.82499 66.0687 3.52118C66.0687 4.20229 65.9936 4.68799 65.8433 4.97829C65.6931 5.26858 65.4564 5.41372 65.1333 5.41372ZM71.3416 6.23181L71.3416 5.02541L72.1793 5.02541L72.1793 4.10176L71.3416 4.10176L71.3416 0.78039L70.2635 0.78039L67.7878 4.12061L67.7878 5.02541L70.2897 5.02541L70.286 6.23181L71.3416 6.23181ZM70.2897 4.10176L68.8021 4.10176L70.2897 2.10366L70.2897 4.10176ZM11.8796 12.0196L11.8796 11.2242L11.0719 11.2242L11.0719 12.0196L11.8796 12.0196ZM11.8646 16.6718L11.8646 12.7736L11.0907 12.7736L11.0907 16.6718L11.8646 16.6718ZM14.3888 16.7472C14.7043 16.7472 14.9767 16.7001 15.2059 16.6058C15.435 16.5116 15.6116 16.3771 15.7355 16.2024C15.8595 16.0278 15.9215 15.8173 15.9215 15.571C15.9215 15.478 15.9071 15.3787 15.8783 15.2731C15.8495 15.1676 15.8 15.0658 15.7299 14.9678C15.6598 14.8698 15.5634 14.7799 15.4406 14.6982C15.3179 14.6165 15.1614 14.5506 14.9711 14.5003L14.9711 14.5003L14.2348 14.3156C14.0194 14.2678 13.8578 14.2069 13.7501 14.1327C13.6425 14.0586 13.5886 13.9574 13.5886 13.8292C13.5886 13.6407 13.6625 13.5006 13.8103 13.4089C13.958 13.3171 14.1471 13.2713 14.3775 13.2713C14.6004 13.2713 14.7801 13.3222 14.9166 13.424C15.0531 13.5257 15.1338 13.6659 15.1589 13.8443L15.1589 13.8443L15.8539 13.8443C15.8439 13.4723 15.7061 13.1883 15.4406 12.9923C15.1752 12.7962 14.8233 12.6982 14.385 12.6982C14.0494 12.6982 13.7689 12.7491 13.5435 12.8509C13.3181 12.9527 13.1485 13.0928 13.0345 13.2713C12.9206 13.4497 12.8636 13.6533 12.8636 13.882C12.8661 14.1786 12.9638 14.4092 13.1566 14.5738C13.3494 14.7384 13.6061 14.8584 13.9267 14.9338L13.9267 14.9338L14.7006 15.1186C14.8759 15.1563 15.0042 15.2153 15.0856 15.2958C15.167 15.3762 15.2077 15.483 15.2077 15.6162C15.2077 15.8022 15.132 15.9398 14.9805 16.029C14.8289 16.1182 14.6305 16.1629 14.385 16.1629C14.2373 16.1629 14.0989 16.1396 13.9699 16.0931C13.8409 16.0466 13.7307 15.975 13.6393 15.8782C13.5479 15.7815 13.4859 15.6589 13.4534 15.5106L13.4534 15.5106L12.7359 15.5106C12.7759 15.7972 12.8755 16.0322 13.0345 16.2156C13.1935 16.3991 13.3914 16.5336 13.6281 16.619C13.8647 16.7045 14.1183 16.7472 14.3888 16.7472ZM19.8786 16.7472C20.1641 16.7472 20.4202 16.6919 20.6468 16.5813C20.8735 16.4707 21.0576 16.3162 21.1991 16.1176C21.3406 15.9191 21.4251 15.6891 21.4526 15.4277L21.4526 15.4277L20.7689 15.4277C20.7489 15.5458 20.7025 15.6602 20.6299 15.7708C20.5573 15.8814 20.459 15.9718 20.335 16.0422C20.2111 16.1126 20.0652 16.1478 19.8974 16.1478C19.5493 16.1478 19.2844 16.0196 19.1028 15.7632C18.9213 15.5069 18.8305 15.1626 18.8305 14.7303C18.8305 14.2578 18.9282 13.9071 19.1235 13.6784C19.3188 13.4497 19.5718 13.3354 19.8823 13.3354C20.0526 13.3354 20.1998 13.3687 20.3238 13.4353C20.4477 13.5019 20.5466 13.5905 20.6205 13.701C20.6944 13.8116 20.7426 13.931 20.7652 14.0592L20.7652 14.0592L21.4601 14.0592C21.4301 13.7878 21.3449 13.5503 21.2047 13.3467C21.0644 13.1431 20.881 12.9841 20.6543 12.8698C20.4277 12.7554 20.1691 12.6982 19.8786 12.6982C19.5004 12.6982 19.1755 12.7837 18.9037 12.9546C18.632 13.1255 18.4248 13.3643 18.282 13.6709C18.1393 13.9775 18.0679 14.3332 18.0679 14.7378C18.0679 15.1676 18.1449 15.5326 18.2989 15.833C18.4529 16.1333 18.6664 16.3608 18.9394 16.5154C19.2124 16.6699 19.5255 16.7472 19.8786 16.7472ZM23.8721 16.7472C24.2603 16.7472 24.5878 16.6624 24.8545 16.4927C25.1212 16.3231 25.3241 16.0875 25.4631 15.7859C25.602 15.4843 25.6715 15.1362 25.6715 14.7416C25.6715 14.3093 25.5977 13.9404 25.4499 13.6351C25.3021 13.3297 25.0943 13.0972 24.8263 12.9376C24.5583 12.778 24.2415 12.6982 23.8759 12.6982C23.4927 12.6982 23.1659 12.7831 22.8954 12.9527C22.6249 13.1224 22.4189 13.3605 22.2774 13.6671C22.1359 13.9737 22.0652 14.3319 22.0652 14.7416C22.0652 15.1663 22.1397 15.5282 22.2887 15.8273C22.4377 16.1264 22.6481 16.3545 22.9198 16.5116C23.1915 16.6687 23.509 16.7472 23.8721 16.7472ZM23.8759 16.1252C23.6329 16.1252 23.4363 16.0611 23.2861 15.9329C23.1358 15.8047 23.0269 15.6338 22.9592 15.4202C22.8916 15.2065 22.8578 14.9728 22.8578 14.719C22.8578 14.4324 22.896 14.1842 22.9724 13.9744C23.0488 13.7645 23.1621 13.6024 23.3124 13.488C23.4626 13.3737 23.6505 13.3165 23.8759 13.3165C24.1163 13.3165 24.3104 13.3793 24.4581 13.505C24.6059 13.6307 24.713 13.7997 24.7793 14.0121C24.8457 14.2245 24.8789 14.4601 24.8789 14.719C24.8789 14.9979 24.8413 15.2436 24.7662 15.456C24.6911 15.6684 24.579 15.833 24.43 15.9499C24.281 16.0667 24.0963 16.1252 23.8759 16.1252ZM27.2761 16.6718L27.2761 14.0969C27.2761 13.9285 27.318 13.7909 27.4019 13.6841C27.4858 13.5773 27.5904 13.4987 27.7156 13.4485C27.8408 13.3982 27.966 13.3731 28.0913 13.3731C28.204 13.3731 28.3173 13.3976 28.4312 13.4466C28.5452 13.4956 28.6404 13.5691 28.7167 13.6671C28.7931 13.7651 28.8313 13.8858 28.8313 14.029L28.8313 14.029L28.8313 16.6718L29.6353 16.6718L29.6353 14.0969C29.6353 13.9159 29.6791 13.7727 29.7667 13.6671C29.8544 13.5616 29.9608 13.4862 30.086 13.4409C30.2113 13.3957 30.3315 13.3731 30.4467 13.3731C30.5744 13.3731 30.6953 13.3976 30.8092 13.4466C30.9232 13.4956 31.0158 13.5804 31.0872 13.701C31.1586 13.8217 31.1943 13.9888 31.1943 14.2025L31.1943 14.2025L31.1943 16.6718L32.0019 16.6718L32.0019 14.1157C32.0019 13.8343 31.9625 13.6018 31.8836 13.4183C31.8047 13.2348 31.702 13.0909 31.5756 12.9866C31.4491 12.8823 31.312 12.8082 31.1642 12.7642C31.0164 12.7202 30.8737 12.6982 30.736 12.6982C30.4805 12.6982 30.2501 12.7573 30.0447 12.8754C29.8394 12.9935 29.6753 13.1456 29.5526 13.3316C29.4825 13.1934 29.3867 13.0771 29.2652 12.9829C29.1438 12.8886 29.011 12.8176 28.867 12.7699C28.723 12.7221 28.5809 12.6982 28.4406 12.6982C28.1401 12.6982 27.8947 12.7617 27.7043 12.8886C27.514 13.0155 27.3637 13.1645 27.2535 13.3354L27.2535 13.3354L27.2535 12.7736L26.4721 12.7736L26.4721 16.6718L27.2761 16.6718ZM33.7823 17.8857L33.7823 16.0007C33.8274 16.0862 33.8844 16.1723 33.9533 16.259C34.0221 16.3457 34.1054 16.4261 34.2031 16.5003C34.3007 16.5744 34.4134 16.6341 34.5412 16.6793C34.6689 16.7246 34.8129 16.7472 34.9732 16.7472C35.3063 16.7472 35.5943 16.6687 35.8372 16.5116C36.0801 16.3545 36.2673 16.1226 36.3988 15.816C36.5303 15.5094 36.5961 15.1299 36.5961 14.6775C36.5961 14.2276 36.5303 13.8562 36.3988 13.5634C36.2673 13.2706 36.0845 13.0532 35.8504 12.9112C35.6162 12.7692 35.3463 12.6982 35.0408 12.6982C34.878 12.6982 34.7296 12.7196 34.5956 12.7623C34.4617 12.805 34.3427 12.8622 34.2388 12.9339C34.1348 13.0055 34.0453 13.0834 33.9702 13.1676C33.895 13.2518 33.8337 13.3366 33.7861 13.4221L33.7861 13.4221L33.7786 12.7736L32.9746 12.7736L32.9746 17.8857L33.7823 17.8857ZM34.8041 16.1327C34.5787 16.1327 34.3897 16.0674 34.2369 15.9367C34.0841 15.806 33.9695 15.6319 33.8931 15.4145C33.8168 15.1971 33.7786 14.9565 33.7786 14.6926C33.7786 14.2879 33.865 13.9568 34.0378 13.6992C34.2106 13.4415 34.466 13.3127 34.8041 13.3127C35.1322 13.3127 35.3845 13.4365 35.5611 13.6841C35.7377 13.9316 35.8259 14.2678 35.8259 14.6926C35.8259 15.1877 35.7301 15.5515 35.5386 15.784C35.347 16.0165 35.1022 16.1327 34.8041 16.1327ZM38.4502 16.7246C38.5078 16.7246 38.5698 16.7183 38.6361 16.7057C38.7025 16.6932 38.767 16.6768 38.8296 16.6567L38.8296 16.6567L38.8296 16.144L38.6267 16.1365C38.479 16.1239 38.3694 16.0699 38.298 15.9744C38.2266 15.8789 38.191 15.7406 38.191 15.5597L38.191 15.5597L38.191 11.0696L37.3983 11.0696L37.3983 15.6426C37.3983 15.7808 37.4102 15.9147 37.434 16.0441C37.4578 16.1735 37.506 16.2892 37.5786 16.3909C37.6513 16.4927 37.7571 16.5738 37.8961 16.6341C38.0351 16.6944 38.2198 16.7246 38.4502 16.7246ZM41.2366 16.7472C41.4946 16.7472 41.7413 16.7001 41.9767 16.6058C42.2121 16.5116 42.4131 16.3715 42.5796 16.1855C42.7462 15.9995 42.852 15.7733 42.8971 15.5069L42.8971 15.5069L42.1533 15.5069C42.1007 15.7155 41.9898 15.8726 41.8208 15.9781C41.6517 16.0837 41.452 16.1365 41.2216 16.1365C40.9912 16.1365 40.7984 16.0831 40.6431 15.9762C40.4878 15.8694 40.372 15.7237 40.2956 15.5389C40.2192 15.3542 40.181 15.145 40.181 14.9112L40.181 14.9112L42.9159 14.9112L42.9159 14.6435C42.9159 14.249 42.8495 13.9065 42.7168 13.6162C42.584 13.3259 42.3893 13.1004 42.1326 12.9395C41.8759 12.7787 41.5597 12.6982 41.184 12.6982C40.8034 12.6982 40.4778 12.7862 40.2073 12.9621C39.9368 13.1381 39.7302 13.3812 39.5875 13.6916C39.4447 14.002 39.3733 14.3595 39.3733 14.7642C39.3733 15.1739 39.4516 15.527 39.6081 15.8236C39.7646 16.1201 39.9832 16.3482 40.2637 16.5078C40.5442 16.6674 40.8685 16.7472 41.2366 16.7472ZM42.1495 14.3872L40.181 14.3872C40.181 14.2087 40.2179 14.0353 40.2918 13.8669C40.3657 13.6985 40.4765 13.5603 40.6243 13.4522C40.7721 13.3442 40.9574 13.2901 41.1803 13.2901C41.3982 13.2901 41.5791 13.3385 41.7231 13.4353C41.8671 13.532 41.9742 13.664 42.0443 13.8311C42.1144 13.9983 42.1495 14.1836 42.1495 14.3872L42.1495 14.3872ZM45.1341 16.6982C45.2894 16.6982 45.4165 16.6907 45.5154 16.6756C45.6143 16.6605 45.6889 16.6429 45.7389 16.6228L45.7389 16.6228L45.7389 16.0988L45.2844 16.0988C45.1742 16.0988 45.0872 16.0906 45.0233 16.0743C44.9594 16.0579 44.9144 16.0202 44.8881 15.9612C44.8618 15.9021 44.8486 15.8085 44.8486 15.6803L44.8486 15.6803L44.8449 13.3542L45.7164 13.3542L45.7164 12.7699L44.8449 12.7699L44.8449 11.6276L44.2626 11.6276L44.0635 12.7736L43.4098 12.7736L43.4098 13.3542L44.0409 13.3542L44.0409 15.7105C44.0409 15.9191 44.0716 16.0969 44.133 16.2439C44.1943 16.3909 44.3045 16.5034 44.4636 16.5813C44.6226 16.6592 44.8461 16.6982 45.1341 16.6982ZM48.1591 16.7472C48.4171 16.7472 48.6638 16.7001 48.8992 16.6058C49.1346 16.5116 49.3356 16.3715 49.5021 16.1855C49.6687 15.9995 49.7745 15.7733 49.8196 15.5069L49.8196 15.5069L49.0758 15.5069C49.0232 15.7155 48.9123 15.8726 48.7433 15.9781C48.5742 16.0837 48.3745 16.1365 48.1441 16.1365C47.9137 16.1365 47.7209 16.0831 47.5656 15.9762C47.4103 15.8694 47.2945 15.7237 47.2181 15.5389C47.1417 15.3542 47.1035 15.145 47.1035 14.9112L47.1035 14.9112L49.8384 14.9112L49.8384 14.6435C49.8384 14.249 49.772 13.9065 49.6393 13.6162C49.5065 13.3259 49.3118 13.1004 49.0551 12.9395C48.7984 12.7787 48.4822 12.6982 48.1065 12.6982C47.7259 12.6982 47.4003 12.7862 47.1298 12.9621C46.8593 13.1381 46.6527 13.3812 46.51 13.6916C46.3672 14.002 46.2958 14.3595 46.2958 14.7642C46.2958 15.1739 46.3741 15.527 46.5306 15.8236C46.6871 16.1201 46.9057 16.3482 47.1862 16.5078C47.4667 16.6674 47.791 16.7472 48.1591 16.7472ZM49.072 14.3872L47.1035 14.3872C47.1035 14.2087 47.1405 14.0353 47.2143 13.8669C47.2882 13.6985 47.399 13.5603 47.5468 13.4522C47.6946 13.3442 47.8799 13.2901 48.1028 13.2901C48.3207 13.2901 48.5016 13.3385 48.6456 13.4353C48.7896 13.532 48.8967 13.664 48.9668 13.8311C49.0369 13.9983 49.072 14.1836 49.072 14.3872L49.072 14.3872ZM52.0942 16.7472C52.3096 16.7472 52.4936 16.7183 52.6464 16.6605C52.7992 16.6027 52.925 16.5285 53.024 16.4381C53.1229 16.3476 53.2012 16.2521 53.2588 16.1516C53.3164 16.051 53.3589 15.958 53.3865 15.8726L53.3865 15.8726L53.4766 16.6718L54.0777 16.6718L54.0777 11.0696L53.27 11.0696L53.27 13.3655C53.2325 13.2977 53.1792 13.2248 53.1104 13.1469C53.0415 13.0689 52.9551 12.9961 52.8512 12.9282C52.7472 12.8603 52.627 12.805 52.4905 12.7623C52.354 12.7196 52.1981 12.6982 52.0228 12.6982C51.6772 12.6982 51.3873 12.7812 51.1531 12.9471C50.919 13.1129 50.743 13.346 50.6253 13.6464C50.5076 13.9467 50.4488 14.2992 50.4488 14.7039C50.4488 15.3649 50.5953 15.8707 50.8883 16.2213C51.1813 16.5719 51.5833 16.7472 52.0942 16.7472ZM52.2482 16.1402C51.9251 16.1402 51.6778 16.0146 51.5063 15.7632C51.3347 15.5119 51.2489 15.15 51.2489 14.6775C51.2489 14.1974 51.3429 13.85 51.5307 13.6351C51.7185 13.4202 51.9615 13.3127 52.2595 13.3127C52.4974 13.3127 52.6896 13.3649 52.8361 13.4692C52.9826 13.5735 53.091 13.7274 53.1611 13.931C53.2312 14.1346 53.2675 14.3834 53.27 14.6775C53.27 15.1977 53.1899 15.5716 53.0296 15.7991C52.8693 16.0265 52.6089 16.1402 52.2482 16.1402ZM57.8373 16.7472C58.1153 16.7472 58.3651 16.69 58.5868 16.5757C58.8084 16.4613 58.9919 16.2546 59.1371 15.9555L59.1371 15.9555L59.201 16.6718L59.881 16.6718L59.881 13.9461C59.881 13.6797 59.8252 13.4535 59.7138 13.2675C59.6023 13.0815 59.4327 12.9401 59.2048 12.8434C58.9769 12.7466 58.6863 12.6982 58.3332 12.6982C58.0152 12.6982 57.7384 12.7435 57.503 12.834C57.2676 12.9244 57.0829 13.0583 56.9489 13.2355C56.8149 13.4126 56.7404 13.6307 56.7254 13.8896L56.7254 13.8896L57.4241 13.8896C57.4742 13.6709 57.58 13.5138 57.7415 13.4183C57.9031 13.3228 58.0878 13.275 58.2957 13.275C58.5711 13.2725 58.7752 13.3354 58.908 13.4635C59.0407 13.5917 59.1071 13.7677 59.1071 13.9913L59.1071 13.9913L59.1071 14.2741L58.4685 14.2929C57.7998 14.3055 57.3127 14.4186 57.0071 14.6322C56.7016 14.8459 56.5488 15.1688 56.5488 15.6011C56.5488 15.8424 56.6039 16.0485 56.7141 16.2194C56.8243 16.3903 56.9764 16.521 57.1705 16.6115C57.3646 16.702 57.5869 16.7472 57.8373 16.7472ZM58.089 16.1855C57.8686 16.1855 57.6858 16.127 57.5406 16.0102C57.3953 15.8933 57.3227 15.7306 57.3227 15.522C57.3227 15.3385 57.3721 15.1915 57.4711 15.0809C57.57 14.9703 57.7127 14.8886 57.8993 14.8358C58.0859 14.783 58.3132 14.7554 58.5812 14.7529L58.5812 14.7529L59.1071 14.7416L59.1071 15.3862C59.1046 15.4868 59.0739 15.5848 59.015 15.6803C58.9562 15.7758 58.8779 15.8619 58.7803 15.9385C58.6826 16.0152 58.5736 16.0755 58.4534 16.1195C58.3332 16.1635 58.2118 16.1855 58.089 16.1855ZM61.7548 16.6718L61.7548 14.0969C61.7548 13.936 61.7986 13.8022 61.8863 13.6954C61.9739 13.5886 62.0891 13.5088 62.2319 13.456C62.3746 13.4032 62.5249 13.3768 62.6827 13.3768C62.9181 13.3768 63.1103 13.4447 63.2593 13.5804C63.4083 13.7161 63.4828 13.9235 63.4828 14.2025L63.4828 14.2025L63.4828 16.6718L64.2868 16.6718L64.2868 14.1157C64.2868 13.7915 64.2242 13.527 64.0989 13.3222C63.9737 13.1173 63.8078 12.9665 63.6012 12.8698C63.3946 12.773 63.1698 12.7246 62.9269 12.7246C62.7215 12.7246 62.5406 12.7535 62.384 12.8113C62.2275 12.8691 62.096 12.9445 61.9896 13.0375C61.8831 13.1305 61.7986 13.2298 61.736 13.3354L61.736 13.3354L61.736 12.7736L60.9509 12.7736L60.9509 16.6718L61.7548 16.6718ZM66.6771 16.7472C66.8925 16.7472 67.0766 16.7183 67.2294 16.6605C67.3821 16.6027 67.508 16.5285 67.6069 16.4381C67.7058 16.3476 67.7841 16.2521 67.8417 16.1516C67.8993 16.051 67.9419 15.958 67.9694 15.8726L67.9694 15.8726L68.0596 16.6718L68.6607 16.6718L68.6607 11.0696L67.853 11.0696L67.853 13.3655C67.8154 13.2977 67.7622 13.2248 67.6933 13.1469C67.6244 13.0689 67.538 12.9961 67.4341 12.9282C67.3302 12.8603 67.21 12.805 67.0735 12.7623C66.937 12.7196 66.7811 12.6982 66.6058 12.6982C66.2601 12.6982 65.9703 12.7812 65.7361 12.9471C65.5019 13.1129 65.326 13.346 65.2083 13.6464C65.0906 13.9467 65.0317 14.2992 65.0317 14.7039C65.0317 15.3649 65.1782 15.8707 65.4713 16.2213C65.7643 16.5719 66.1662 16.7472 66.6771 16.7472ZM66.8312 16.1402C66.5081 16.1402 66.2608 16.0146 66.0892 15.7632C65.9177 15.5119 65.8319 15.15 65.8319 14.6775C65.8319 14.1974 65.9258 13.85 66.1136 13.6351C66.3015 13.4202 66.5444 13.3127 66.8424 13.3127C67.0804 13.3127 67.2726 13.3649 67.4191 13.4692C67.5656 13.5735 67.6739 13.7274 67.744 13.931C67.8142 14.1346 67.8505 14.3834 67.853 14.6775C67.853 15.1977 67.7728 15.5716 67.6125 15.7991C67.4523 16.0265 67.1918 16.1402 66.8312 16.1402ZM0.807681 28.3257L0.807681 26.4408C0.85276 26.5262 0.909736 26.6123 0.978608 26.699C1.04748 26.7857 1.13075 26.8661 1.22843 26.9403C1.3261 27.0144 1.4388 27.0741 1.56652 27.1194C1.69425 27.1646 1.83826 27.1872 1.99854 27.1872C2.33163 27.1872 2.61964 27.1087 2.86257 26.9516C3.1055 26.7945 3.29271 26.5626 3.42419 26.256C3.55567 25.9494 3.62141 25.5699 3.62141 25.1175C3.62141 24.6676 3.55567 24.2962 3.42419 24.0034C3.29271 23.7106 3.10988 23.4932 2.87572 23.3512C2.64155 23.2092 2.3717 23.1382 2.06616 23.1382C1.90337 23.1382 1.75498 23.1596 1.621 23.2023C1.48701 23.245 1.36805 23.3022 1.26411 23.3739C1.16018 23.4455 1.07065 23.5234 0.995513 23.6076C0.92038 23.6918 0.859022 23.7766 0.811437 23.8621L0.811437 23.8621L0.803924 23.2136L0 23.2136L0 28.3257L0.807681 28.3257ZM1.82949 26.5727C1.60409 26.5727 1.41501 26.5074 1.26224 26.3767C1.10947 26.246 0.994887 26.0719 0.918502 25.8545C0.842117 25.6371 0.803924 25.3965 0.803924 25.1326C0.803924 24.7279 0.890327 24.3968 1.06313 24.1392C1.23594 23.8815 1.49139 23.7527 1.82949 23.7527C2.15757 23.7527 2.40989 23.8765 2.58646 24.1241C2.76302 24.3716 2.8513 24.7078 2.8513 25.1326C2.8513 25.6277 2.75551 25.9915 2.56392 26.224C2.37233 26.4565 2.12752 26.5727 1.82949 26.5727ZM5.22758 27.1118L5.22758 24.7669C5.22758 24.6136 5.25451 24.4803 5.30835 24.3672C5.3622 24.2541 5.43983 24.1624 5.54126 24.092C5.64269 24.0217 5.76353 23.9714 5.90378 23.9412C6.04403 23.9111 6.1993 23.9023 6.36961 23.9149C6.40717 23.9174 6.45163 23.9211 6.50297 23.9262C6.55431 23.9312 6.59626 23.9412 6.62881 23.9563L6.62881 23.9563L6.62881 23.1797C6.60127 23.1646 6.5637 23.1539 6.51612 23.1477C6.46853 23.1414 6.41844 23.1382 6.36585 23.1382C6.19304 23.1382 6.029 23.1715 5.87373 23.2381C5.71845 23.3047 5.58259 23.4028 5.46613 23.5322C5.34967 23.6616 5.25889 23.8219 5.19377 24.0129L5.19377 24.0129L5.19377 23.2136L4.42366 23.2136L4.42366 27.1118L5.22758 27.1118ZM8.82713 27.1872C9.21531 27.1872 9.54277 27.1024 9.80949 26.9327C10.0762 26.7631 10.2791 26.5275 10.4181 26.2259C10.5571 25.9243 10.6266 25.5762 10.6266 25.1816C10.6266 24.7493 10.5527 24.3804 10.4049 24.0751C10.2572 23.7697 10.0493 23.5372 9.78132 23.3776C9.51334 23.218 9.19653 23.1382 8.83088 23.1382C8.4477 23.1382 8.12087 23.2231 7.8504 23.3927C7.57992 23.5624 7.37393 23.8005 7.23243 24.1071C7.09093 24.4137 7.02017 24.7719 7.02017 25.1816C7.02017 25.6063 7.09468 25.9682 7.2437 26.2673C7.39271 26.5664 7.60308 26.7945 7.87481 26.9516C8.14655 27.1087 8.46398 27.1872 8.82713 27.1872ZM8.83088 26.5652C8.58795 26.5652 8.39135 26.5011 8.24109 26.3729C8.09082 26.2447 7.98188 26.0738 7.91426 25.8602C7.84664 25.6465 7.81283 25.4128 7.81283 25.1589C7.81283 24.8724 7.85102 24.6242 7.92741 24.4144C8.00379 24.2045 8.11712 24.0424 8.26738 23.928C8.41765 23.8137 8.60548 23.7565 8.83088 23.7565C9.07131 23.7565 9.2654 23.8193 9.41316 23.945C9.56093 24.0707 9.66799 24.2397 9.73436 24.4521C9.80072 24.6645 9.83391 24.9001 9.83391 25.1589C9.83391 25.4379 9.79634 25.6836 9.72121 25.896C9.64608 26.1084 9.534 26.273 9.38499 26.3899C9.23597 26.5067 9.05127 26.5652 8.83088 26.5652ZM13.0087 27.1872C13.2942 27.1872 13.5503 27.1319 13.777 27.0213C14.0036 26.9107 14.1877 26.7562 14.3292 26.5576C14.4707 26.3591 14.5552 26.1291 14.5828 25.8677L14.5828 25.8677L13.899 25.8677C13.879 25.9858 13.8327 26.1002 13.76 26.2108C13.6874 26.3214 13.5891 26.4118 13.4651 26.4822C13.3412 26.5526 13.1953 26.5878 13.0275 26.5878C12.6794 26.5878 12.4145 26.4596 12.233 26.2032C12.0514 25.9469 11.9606 25.6026 11.9606 25.1703C11.9606 24.6978 12.0583 24.3471 12.2536 24.1184C12.449 23.8897 12.7019 23.7754 13.0125 23.7754C13.1828 23.7754 13.3299 23.8087 13.4539 23.8753C13.5778 23.9419 13.6768 24.0305 13.7507 24.1411C13.8245 24.2516 13.8727 24.371 13.8953 24.4992L13.8953 24.4992L14.5903 24.4992C14.5602 24.2278 14.4751 23.9902 14.3348 23.7867C14.1946 23.5831 14.0111 23.4241 13.7845 23.3098C13.5578 23.1954 13.2992 23.1382 13.0087 23.1382C12.6305 23.1382 12.3056 23.2237 12.0339 23.3946C11.7621 23.5655 11.5549 23.8043 11.4121 24.1109C11.2694 24.4175 11.198 24.7732 11.198 25.1778C11.198 25.6076 11.275 25.9726 11.429 26.273C11.5831 26.5733 11.7966 26.8008 12.0696 26.9554C12.3425 27.1099 12.6556 27.1872 13.0087 27.1872ZM17.0886 27.1872C17.3466 27.1872 17.5933 27.1401 17.8287 27.0458C18.0641 26.9516 18.2651 26.8115 18.4316 26.6255C18.5982 26.4395 18.704 26.2133 18.7491 25.9469L18.7491 25.9469L18.0053 25.9469C17.9527 26.1555 17.8418 26.3126 17.6728 26.4181C17.5037 26.5237 17.304 26.5765 17.0736 26.5765C16.8432 26.5765 16.6504 26.5231 16.4951 26.4162C16.3398 26.3094 16.224 26.1637 16.1476 25.9789C16.0712 25.7942 16.033 25.585 16.033 25.3512L16.033 25.3512L18.7679 25.3512L18.7679 25.0835C18.7679 24.689 18.7015 24.3465 18.5688 24.0562C18.436 23.7659 18.2413 23.5404 17.9846 23.3795C17.7279 23.2187 17.4117 23.1382 17.036 23.1382C16.6554 23.1382 16.3298 23.2262 16.0593 23.4021C15.7888 23.5781 15.5822 23.8212 15.4395 24.1316C15.2967 24.442 15.2253 24.7995 15.2253 25.2042C15.2253 25.6139 15.3036 25.967 15.4601 26.2636C15.6167 26.5601 15.8352 26.7882 16.1157 26.9478C16.3962 27.1074 16.7205 27.1872 17.0886 27.1872ZM18.0015 24.8272L16.033 24.8272C16.033 24.6487 16.07 24.4753 16.1438 24.3069C16.2177 24.1385 16.3285 24.0003 16.4763 23.8922C16.6241 23.7842 16.8094 23.7301 17.0323 23.7301C17.2502 23.7301 17.4311 23.7785 17.5751 23.8753C17.7191 23.972 17.8262 24.104 17.8963 24.2711C17.9664 24.4383 18.0015 24.6236 18.0015 24.8272L18.0015 24.8272ZM21.0087 27.1872C21.3242 27.1872 21.5966 27.1401 21.8257 27.0458C22.0549 26.9516 22.2315 26.8171 22.3554 26.6424C22.4794 26.4678 22.5414 26.2573 22.5414 26.011C22.5414 25.918 22.527 25.8187 22.4982 25.7131C22.4694 25.6076 22.4199 25.5058 22.3498 25.4078C22.2797 25.3097 22.1833 25.2199 22.0605 25.1382C21.9378 25.0565 21.7813 24.9906 21.591 24.9403L21.591 24.9403L20.8546 24.7556C20.6393 24.7078 20.4777 24.6469 20.37 24.5727C20.2624 24.4986 20.2085 24.3974 20.2085 24.2692C20.2085 24.0807 20.2824 23.9406 20.4301 23.8489C20.5779 23.7571 20.767 23.7113 20.9974 23.7113C21.2203 23.7113 21.4 23.7622 21.5365 23.864C21.673 23.9657 21.7537 24.1059 21.7788 24.2843L21.7788 24.2843L22.4738 24.2843C22.4637 23.9123 22.326 23.6283 22.0605 23.4323C21.7951 23.2362 21.4432 23.1382 21.0049 23.1382C20.6693 23.1382 20.3888 23.1891 20.1634 23.2909C19.938 23.3927 19.7683 23.5328 19.6544 23.7113C19.5404 23.8897 19.4835 24.0933 19.4835 24.322C19.486 24.6186 19.5836 24.8492 19.7765 25.0138C19.9693 25.1784 20.226 25.2984 20.5466 25.3738L20.5466 25.3738L21.3205 25.5586C21.4958 25.5963 21.6241 25.6553 21.7055 25.7358C21.7869 25.8162 21.8276 25.923 21.8276 26.0562C21.8276 26.2422 21.7519 26.3798 21.6003 26.469C21.4488 26.5582 21.2503 26.6029 21.0049 26.6029C20.8572 26.6029 20.7188 26.5796 20.5898 26.5331C20.4608 26.4866 20.3506 26.415 20.2592 26.3182C20.1678 26.2215 20.1058 26.0989 20.0733 25.9506L20.0733 25.9506L19.3557 25.9506C19.3958 26.2372 19.4954 26.4722 19.6544 26.6556C19.8134 26.8391 20.0113 26.9736 20.2479 27.059C20.4846 27.1445 20.7382 27.1872 21.0087 27.1872ZM24.7599 27.1872C25.0754 27.1872 25.3478 27.1401 25.577 27.0458C25.8061 26.9516 25.9827 26.8171 26.1067 26.6424C26.2306 26.4678 26.2926 26.2573 26.2926 26.011C26.2926 25.918 26.2782 25.8187 26.2494 25.7131C26.2206 25.6076 26.1711 25.5058 26.101 25.4078C26.0309 25.3097 25.9345 25.2199 25.8118 25.1382C25.689 25.0565 25.5325 24.9906 25.3422 24.9403L25.3422 24.9403L24.6059 24.7556C24.3905 24.7078 24.2289 24.6469 24.1213 24.5727C24.0136 24.4986 23.9597 24.3974 23.9597 24.2692C23.9597 24.0807 24.0336 23.9406 24.1814 23.8489C24.3291 23.7571 24.5182 23.7113 24.7486 23.7113C24.9715 23.7113 25.1512 23.7622 25.2877 23.864C25.4242 23.9657 25.505 24.1059 25.53 24.2843L25.53 24.2843L26.225 24.2843C26.215 23.9123 26.0772 23.6283 25.8118 23.4323C25.5463 23.2362 25.1944 23.1382 24.7561 23.1382C24.4205 23.1382 24.14 23.1891 23.9146 23.2909C23.6892 23.3927 23.5196 23.5328 23.4056 23.7113C23.2917 23.8897 23.2347 24.0933 23.2347 24.322C23.2372 24.6186 23.3349 24.8492 23.5277 25.0138C23.7205 25.1784 23.9773 25.2984 24.2978 25.3738L24.2978 25.3738L25.0717 25.5586C25.247 25.5963 25.3754 25.6553 25.4567 25.7358C25.5381 25.8162 25.5788 25.923 25.5788 26.0562C25.5788 26.2422 25.5031 26.3798 25.3516 26.469C25.2 26.5582 25.0016 26.6029 24.7561 26.6029C24.6084 26.6029 24.47 26.5796 24.341 26.5331C24.212 26.4866 24.1018 26.415 24.0104 26.3182C23.919 26.2215 23.857 26.0989 23.8245 25.9506L23.8245 25.9506L23.107 25.9506C23.147 26.2372 23.2466 26.4722 23.4056 26.6556C23.5646 26.8391 23.7625 26.9736 23.9992 27.059C24.2358 27.1445 24.4894 27.1872 24.7599 27.1872ZM28.8116 27.1872C29.0696 27.1872 29.3163 27.1401 29.5517 27.0458C29.7871 26.9516 29.9881 26.8115 30.1546 26.6255C30.3212 26.4395 30.427 26.2133 30.4721 25.9469L30.4721 25.9469L29.7283 25.9469C29.6757 26.1555 29.5648 26.3126 29.3958 26.4181C29.2267 26.5237 29.027 26.5765 28.7966 26.5765C28.5662 26.5765 28.3734 26.5231 28.2181 26.4162C28.0628 26.3094 27.947 26.1637 27.8706 25.9789C27.7942 25.7942 27.756 25.585 27.756 25.3512L27.756 25.3512L30.4909 25.3512L30.4909 25.0835C30.4909 24.689 30.4245 24.3465 30.2918 24.0562C30.159 23.7659 29.9643 23.5404 29.7076 23.3795C29.4509 23.2187 29.1347 23.1382 28.759 23.1382C28.3784 23.1382 28.0528 23.2262 27.7823 23.4021C27.5118 23.5781 27.3052 23.8212 27.1625 24.1316C27.0197 24.442 26.9483 24.7995 26.9483 25.2042C26.9483 25.6139 27.0266 25.967 27.1831 26.2636C27.3397 26.5601 27.5582 26.7882 27.8387 26.9478C28.1192 27.1074 28.4435 27.1872 28.8116 27.1872ZM29.7245 24.8272L27.756 24.8272C27.756 24.6487 27.793 24.4753 27.8668 24.3069C27.9407 24.1385 28.0515 24.0003 28.1993 23.8922C28.3471 23.7842 28.5324 23.7301 28.7553 23.7301C28.9732 23.7301 29.1541 23.7785 29.2981 23.8753C29.4421 23.972 29.5492 24.104 29.6193 24.2711C29.6894 24.4383 29.7245 24.6236 29.7245 24.8272L29.7245 24.8272ZM32.7467 27.1872C32.9621 27.1872 33.1462 27.1583 33.2989 27.1005C33.4517 27.0427 33.5775 26.9685 33.6765 26.8781C33.7754 26.7876 33.8537 26.6921 33.9113 26.5916C33.9689 26.491 34.0114 26.398 34.039 26.3126L34.039 26.3126L34.1291 27.1118L34.7302 27.1118L34.7302 21.5096L33.9225 21.5096L33.9225 23.8055C33.885 23.7377 33.8317 23.6648 33.7629 23.5869C33.694 23.5089 33.6076 23.4361 33.5037 23.3682C33.3997 23.3003 33.2795 23.245 33.143 23.2023C33.0065 23.1596 32.8506 23.1382 32.6753 23.1382C32.3297 23.1382 32.0398 23.2212 31.8057 23.3871C31.5715 23.5529 31.3956 23.786 31.2778 24.0864C31.1601 24.3867 31.1013 24.7392 31.1013 25.1439C31.1013 25.8049 31.2478 26.3107 31.5408 26.6613C31.8338 27.0119 32.2358 27.1872 32.7467 27.1872ZM32.9007 26.5802C32.5776 26.5802 32.3303 26.4546 32.1588 26.2032C31.9872 25.9519 31.9015 25.59 31.9015 25.1175C31.9015 24.6374 31.9954 24.29 32.1832 24.0751C32.371 23.8602 32.614 23.7527 32.912 23.7527C33.1499 23.7527 33.3421 23.8049 33.4886 23.9092C33.6351 24.0135 33.7435 24.1674 33.8136 24.371C33.8837 24.5746 33.92 24.8234 33.9225 25.1175C33.9225 25.6377 33.8424 26.0116 33.6821 26.2391C33.5218 26.4665 33.2614 26.5802 32.9007 26.5802ZM38.8242 27.1872C39.1397 27.1872 39.4121 27.1401 39.6413 27.0458C39.8704 26.9516 40.047 26.8171 40.1709 26.6424C40.2949 26.4678 40.3569 26.2573 40.3569 26.011C40.3569 25.918 40.3425 25.8187 40.3137 25.7131C40.2849 25.6076 40.2354 25.5058 40.1653 25.4078C40.0952 25.3097 39.9988 25.2199 39.8761 25.1382C39.7533 25.0565 39.5968 24.9906 39.4065 24.9403L39.4065 24.9403L38.6702 24.7556C38.4548 24.7078 38.2932 24.6469 38.1856 24.5727C38.0779 24.4986 38.024 24.3974 38.024 24.2692C38.024 24.0807 38.0979 23.9406 38.2457 23.8489C38.3934 23.7571 38.5825 23.7113 38.8129 23.7113C39.0358 23.7113 39.2155 23.7622 39.352 23.864C39.4885 23.9657 39.5693 24.1059 39.5943 24.2843L39.5943 24.2843L40.2893 24.2843C40.2793 23.9123 40.1415 23.6283 39.8761 23.4323C39.6106 23.2362 39.2587 23.1382 38.8204 23.1382C38.4848 23.1382 38.2043 23.1891 37.9789 23.2909C37.7535 23.3927 37.5839 23.5328 37.4699 23.7113C37.356 23.8897 37.299 24.0933 37.299 24.322C37.3015 24.6186 37.3992 24.8492 37.592 25.0138C37.7848 25.1784 38.0416 25.2984 38.3621 25.3738L38.3621 25.3738L39.136 25.5586C39.3113 25.5963 39.4397 25.6553 39.521 25.7358C39.6024 25.8162 39.6431 25.923 39.6431 26.0562C39.6431 26.2422 39.5674 26.3798 39.4159 26.469C39.2643 26.5582 39.0659 26.6029 38.8204 26.6029C38.6727 26.6029 38.5343 26.5796 38.4053 26.5331C38.2763 26.4866 38.1661 26.415 38.0747 26.3182C37.9833 26.2215 37.9213 26.0989 37.8888 25.9506L37.8888 25.9506L37.1713 25.9506C37.2113 26.2372 37.3109 26.4722 37.4699 26.6556C37.6289 26.8391 37.8268 26.9736 38.0635 27.059C38.3001 27.1445 38.5537 27.1872 38.8242 27.1872ZM42.6393 27.1872C42.8171 27.1897 42.9855 27.164 43.1445 27.1099C43.3036 27.0559 43.4413 26.9679 43.5578 26.846C43.6742 26.7241 43.755 26.5614 43.8001 26.3578L43.8001 26.3578L43.8902 27.1118L44.5138 27.1118L44.5138 23.2136L43.7137 23.2136L43.7137 25.7508C43.7137 26.0198 43.6335 26.224 43.4732 26.3635C43.313 26.503 43.1001 26.5727 42.8346 26.5727C42.5416 26.5727 42.3225 26.4998 42.1772 26.354C42.0319 26.2083 41.9593 26.0185 41.9593 25.7848L41.9593 25.7848L41.9593 23.2136L41.1516 23.2136L41.1516 25.8715C41.1516 26.0876 41.1923 26.2774 41.2737 26.4408C41.3551 26.6041 41.4653 26.7411 41.6043 26.8517C41.7433 26.9623 41.9017 27.0452 42.0795 27.1005C42.2573 27.1558 42.4439 27.1847 42.6393 27.1872ZM47.069 27.1872C47.3545 27.1872 47.6106 27.1319 47.8373 27.0213C48.0639 26.9107 48.248 26.7562 48.3895 26.5576C48.531 26.3591 48.6155 26.1291 48.6431 25.8677L48.6431 25.8677L47.9594 25.8677C47.9393 25.9858 47.893 26.1002 47.8204 26.2108C47.7477 26.3214 47.6494 26.4118 47.5255 26.4822C47.4015 26.5526 47.2556 26.5878 47.0878 26.5878C46.7397 26.5878 46.4749 26.4596 46.2933 26.2032C46.1117 25.9469 46.0209 25.6026 46.0209 25.1703C46.0209 24.6978 46.1186 24.3471 46.3139 24.1184C46.5093 23.8897 46.7622 23.7754 47.0728 23.7754C47.2431 23.7754 47.3902 23.8087 47.5142 23.8753C47.6382 23.9419 47.7371 24.0305 47.811 24.1411C47.8848 24.2516 47.9331 24.371 47.9556 24.4992L47.9556 24.4992L48.6506 24.4992C48.6205 24.2278 48.5354 23.9902 48.3951 23.7867C48.2549 23.5831 48.0714 23.4241 47.8448 23.3098C47.6181 23.1954 47.3595 23.1382 47.069 23.1382C46.6909 23.1382 46.3659 23.2237 46.0942 23.3946C45.8224 23.5655 45.6152 23.8043 45.4725 24.1109C45.3297 24.4175 45.2583 24.7732 45.2583 25.1778C45.2583 25.6076 45.3353 25.9726 45.4894 26.273C45.6434 26.5733 45.8569 26.8008 46.1299 26.9554C46.4029 27.1099 46.7159 27.1872 47.069 27.1872ZM51.0663 27.1872C51.3518 27.1872 51.6079 27.1319 51.8345 27.0213C52.0612 26.9107 52.2453 26.7562 52.3868 26.5576C52.5283 26.3591 52.6128 26.1291 52.6404 25.8677L52.6404 25.8677L51.9566 25.8677C51.9366 25.9858 51.8903 26.1002 51.8176 26.2108C51.745 26.3214 51.6467 26.4118 51.5227 26.4822C51.3988 26.5526 51.2529 26.5878 51.0851 26.5878C50.737 26.5878 50.4721 26.4596 50.2906 26.2032C50.109 25.9469 50.0182 25.6026 50.0182 25.1703C50.0182 24.6978 50.1159 24.3471 50.3112 24.1184C50.5066 23.8897 50.7595 23.7754 51.0701 23.7754C51.2404 23.7754 51.3875 23.8087 51.5115 23.8753C51.6354 23.9419 51.7344 24.0305 51.8083 24.1411C51.8821 24.2516 51.9303 24.371 51.9529 24.4992L51.9529 24.4992L52.6479 24.4992C52.6178 24.2278 52.5327 23.9902 52.3924 23.7867C52.2522 23.5831 52.0687 23.4241 51.8421 23.3098C51.6154 23.1954 51.3568 23.1382 51.0663 23.1382C50.6881 23.1382 50.3632 23.2237 50.0915 23.3946C49.8197 23.5655 49.6125 23.8043 49.4697 24.1109C49.327 24.4175 49.2556 24.7732 49.2556 25.1778C49.2556 25.6076 49.3326 25.9726 49.4866 26.273C49.6407 26.5733 49.8542 26.8008 50.1271 26.9554C50.4001 27.1099 50.7132 27.1872 51.0663 27.1872ZM55.1462 27.1872C55.4042 27.1872 55.6509 27.1401 55.8863 27.0458C56.1217 26.9516 56.3227 26.8115 56.4892 26.6255C56.6558 26.4395 56.7616 26.2133 56.8067 25.9469L56.8067 25.9469L56.0629 25.9469C56.0103 26.1555 55.8994 26.3126 55.7304 26.4181C55.5613 26.5237 55.3616 26.5765 55.1312 26.5765C54.9008 26.5765 54.708 26.5231 54.5527 26.4162C54.3974 26.3094 54.2816 26.1637 54.2052 25.9789C54.1288 25.7942 54.0906 25.585 54.0906 25.3512L54.0906 25.3512L56.8255 25.3512L56.8255 25.0835C56.8255 24.689 56.7591 24.3465 56.6264 24.0562C56.4936 23.7659 56.2989 23.5404 56.0422 23.3795C55.7855 23.2187 55.4693 23.1382 55.0936 23.1382C54.713 23.1382 54.3874 23.2262 54.1169 23.4021C53.8464 23.5781 53.6398 23.8212 53.4971 24.1316C53.3543 24.442 53.2829 24.7995 53.2829 25.2042C53.2829 25.6139 53.3612 25.967 53.5177 26.2636C53.6743 26.5601 53.8928 26.7882 54.1733 26.9478C54.4538 27.1074 54.7781 27.1872 55.1462 27.1872ZM56.0591 24.8272L54.0906 24.8272C54.0906 24.6487 54.1276 24.4753 54.2014 24.3069C54.2753 24.1385 54.3861 24.0003 54.5339 23.8922C54.6817 23.7842 54.867 23.7301 55.0899 23.7301C55.3078 23.7301 55.4887 23.7785 55.6327 23.8753C55.7767 23.972 55.8838 24.104 55.9539 24.2711C56.024 24.4383 56.0591 24.6236 56.0591 24.8272L56.0591 24.8272ZM59.0663 27.1872C59.3818 27.1872 59.6542 27.1401 59.8833 27.0458C60.1125 26.9516 60.2891 26.8171 60.413 26.6424C60.537 26.4678 60.599 26.2573 60.599 26.011C60.599 25.918 60.5846 25.8187 60.5558 25.7131C60.527 25.6076 60.4775 25.5058 60.4074 25.4078C60.3373 25.3097 60.2408 25.2199 60.1181 25.1382C59.9954 25.0565 59.8389 24.9906 59.6486 24.9403L59.6486 24.9403L58.9122 24.7556C58.6969 24.7078 58.5353 24.6469 58.4276 24.5727C58.3199 24.4986 58.2661 24.3974 58.2661 24.2692C58.2661 24.0807 58.34 23.9406 58.4877 23.8489C58.6355 23.7571 58.8246 23.7113 59.055 23.7113C59.2779 23.7113 59.4576 23.7622 59.5941 23.864C59.7306 23.9657 59.8113 24.1059 59.8364 24.2843L59.8364 24.2843L60.5314 24.2843C60.5213 23.9123 60.3836 23.6283 60.1181 23.4323C59.8527 23.2362 59.5008 23.1382 59.0625 23.1382C58.7269 23.1382 58.4464 23.1891 58.221 23.2909C57.9956 23.3927 57.8259 23.5328 57.712 23.7113C57.598 23.8897 57.5411 24.0933 57.5411 24.322C57.5436 24.6186 57.6412 24.8492 57.8341 25.0138C58.0269 25.1784 58.2836 25.2984 58.6042 25.3738L58.6042 25.3738L59.3781 25.5586C59.5534 25.5963 59.6817 25.6553 59.7631 25.7358C59.8445 25.8162 59.8852 25.923 59.8852 26.0562C59.8852 26.2422 59.8095 26.3798 59.6579 26.469C59.5064 26.5582 59.3079 26.6029 59.0625 26.6029C58.9147 26.6029 58.7764 26.5796 58.6474 26.5331C58.5184 26.4866 58.4082 26.415 58.3168 26.3182C58.2254 26.2215 58.1634 26.0989 58.1309 25.9506L58.1309 25.9506L57.4133 25.9506C57.4534 26.2372 57.553 26.4722 57.712 26.6556C57.871 26.8391 58.0689 26.9736 58.3055 27.059C58.5422 27.1445 58.7958 27.1872 59.0663 27.1872ZM62.8175 27.1872C63.133 27.1872 63.4054 27.1401 63.6346 27.0458C63.8637 26.9516 64.0403 26.8171 64.1642 26.6424C64.2882 26.4678 64.3502 26.2573 64.3502 26.011C64.3502 25.918 64.3358 25.8187 64.307 25.7131C64.2782 25.6076 64.2287 25.5058 64.1586 25.4078C64.0885 25.3097 63.9921 25.2199 63.8694 25.1382C63.7466 25.0565 63.5901 24.9906 63.3998 24.9403L63.3998 24.9403L62.6635 24.7556C62.4481 24.7078 62.2865 24.6469 62.1789 24.5727C62.0712 24.4986 62.0173 24.3974 62.0173 24.2692C62.0173 24.0807 62.0912 23.9406 62.239 23.8489C62.3867 23.7571 62.5758 23.7113 62.8062 23.7113C63.0291 23.7113 63.2088 23.7622 63.3453 23.864C63.4818 23.9657 63.5626 24.1059 63.5876 24.2843L63.5876 24.2843L64.2826 24.2843C64.2726 23.9123 64.1348 23.6283 63.8694 23.4323C63.6039 23.2362 63.252 23.1382 62.8137 23.1382C62.4781 23.1382 62.1976 23.1891 61.9722 23.2909C61.7468 23.3927 61.5772 23.5328 61.4632 23.7113C61.3493 23.8897 61.2923 24.0933 61.2923 24.322C61.2948 24.6186 61.3925 24.8492 61.5853 25.0138C61.7781 25.1784 62.0349 25.2984 62.3554 25.3738L62.3554 25.3738L63.1293 25.5586C63.3046 25.5963 63.433 25.6553 63.5143 25.7358C63.5957 25.8162 63.6364 25.923 63.6364 26.0562C63.6364 26.2422 63.5607 26.3798 63.4092 26.469C63.2576 26.5582 63.0592 26.6029 62.8137 26.6029C62.666 26.6029 62.5276 26.5796 62.3986 26.5331C62.2696 26.4866 62.1594 26.415 62.068 26.3182C61.9766 26.2215 61.9146 26.0989 61.8821 25.9506L61.8821 25.9506L61.1646 25.9506C61.2046 26.2372 61.3042 26.4722 61.4632 26.6556C61.6222 26.8391 61.8201 26.9736 62.0568 27.059C62.2934 27.1445 62.547 27.1872 62.8175 27.1872ZM66.5387 27.1118L66.5387 23.7942L67.4478 23.7942L67.4478 23.2136L66.5236 23.2136L66.5236 22.716C66.5236 22.5476 66.5518 22.4226 66.6081 22.3409C66.6645 22.2592 66.7703 22.2184 66.9256 22.2184L66.9256 22.2184L67.4853 22.2184L67.4816 21.6604L66.7077 21.6604C66.3871 21.6604 66.1442 21.7427 65.9789 21.9073C65.8136 22.0719 65.731 22.3101 65.731 22.6217L65.731 22.6217L65.731 23.2136L64.9383 23.2136L64.9383 23.7942L65.731 23.7942L65.731 27.1118L66.5387 27.1118ZM69.6146 27.1872C69.7924 27.1897 69.9608 27.164 70.1199 27.1099C70.2789 27.0559 70.4167 26.9679 70.5331 26.846C70.6496 26.7241 70.7303 26.5614 70.7754 26.3578L70.7754 26.3578L70.8656 27.1118L71.4892 27.1118L71.4892 23.2136L70.689 23.2136L70.689 25.7508C70.689 26.0198 70.6089 26.224 70.4486 26.3635C70.2883 26.503 70.0754 26.5727 69.81 26.5727C69.5169 26.5727 69.2978 26.4998 69.1525 26.354C69.0073 26.2083 68.9347 26.0185 68.9347 25.7848L68.9347 25.7848L68.9347 23.2136L68.127 23.2136L68.127 25.8715C68.127 26.0876 68.1677 26.2774 68.2491 26.4408C68.3305 26.6041 68.4407 26.7411 68.5797 26.8517C68.7187 26.9623 68.8771 27.0452 69.0549 27.1005C69.2327 27.1558 69.4193 27.1847 69.6146 27.1872ZM73.556 27.1646C73.6136 27.1646 73.6756 27.1583 73.742 27.1457C73.8083 27.1332 73.8728 27.1168 73.9354 27.0967L73.9354 27.0967L73.9354 26.584L73.7326 26.5765C73.5848 26.5639 73.4752 26.5099 73.4039 26.4144C73.3325 26.3189 73.2968 26.1806 73.2968 25.9997L73.2968 25.9997L73.2968 21.5096L72.5041 21.5096L72.5041 26.0826C72.5041 26.2208 72.516 26.3547 72.5398 26.4841C72.5636 26.6135 72.6118 26.7292 72.6845 26.8309C72.7571 26.9327 72.8629 27.0138 73.0019 27.0741C73.1409 27.1344 73.3256 27.1646 73.556 27.1646ZM75.6775 27.1646C75.7351 27.1646 75.7971 27.1583 75.8635 27.1457C75.9299 27.1332 75.9944 27.1168 76.057 27.0967L76.057 27.0967L76.057 26.584L75.8541 26.5765C75.7063 26.5639 75.5968 26.5099 75.5254 26.4144C75.454 26.3189 75.4183 26.1806 75.4183 25.9997L75.4183 25.9997L75.4183 21.5096L74.6257 21.5096L74.6257 26.0826C74.6257 26.2208 74.6376 26.3547 74.6614 26.4841C74.6852 26.6135 74.7334 26.7292 74.806 26.8309C74.8786 26.9327 74.9844 27.0138 75.1234 27.0741C75.2624 27.1344 75.4471 27.1646 75.6775 27.1646ZM77.1417 28.3559C77.327 28.3559 77.4985 28.327 77.6563 28.2692C77.8141 28.2114 77.9587 28.1083 78.0902 27.9601C78.2217 27.8118 78.3425 27.6019 78.4527 27.3305L78.4527 27.3305L80.0719 23.2136L79.283 23.2136L78.201 26.0939L77.1116 23.2136L76.3077 23.2136L77.8216 26.9987L77.7014 27.3267C77.6864 27.3694 77.6638 27.4159 77.6338 27.4662C77.6037 27.5165 77.5605 27.5636 77.5042 27.6076C77.4478 27.6516 77.3714 27.6861 77.275 27.7112C77.1786 27.7364 77.0553 27.7452 76.905 27.7376L76.905 27.7376L76.5105 27.7301L76.5105 28.2504C76.5105 28.2504 76.5563 28.2679 76.6477 28.3031C76.7391 28.3383 76.9037 28.3559 77.1417 28.3559Z" transform="translate(0.24711265 41.32819)" id="Paymentof$9204iscompletedandprocessedsuccessfully" fill="#36536B" stroke="none" />
            <g id="Group-31" transform="translate(23.007605 0)">
              <path d="M16.1825 32.48C25.1199 32.48 32.365 25.2091 32.365 16.24C32.365 7.2709 25.1199 0 16.1825 0C7.24516 0 0 7.2709 0 16.24C0 25.2091 7.24516 32.48 16.1825 32.48Z" id="Oval" fill="#BA4270" fill-opacity="0.25" fill-rule="evenodd" stroke="none" />
              <path d="M0 5.04383L2.64521 7.69844L10.3164 0" transform="translate(10.9809885 12.18)" id="Path-2" fill="none" fill-rule="evenodd" stroke="#BA4270" stroke-width="3" />
            </g>
          </g>
        </g>
      </g>
      <g id="Group-2-Copy" transform="translate(13.292776 102.08)">
        <path d="M8.699 0L67.012 0Q67.2256 0 67.4389 0.0104783Q67.6522 0.0209566 67.8647 0.0418881Q68.0772 0.0628195 68.2884 0.0941535Q68.4997 0.125488 68.7091 0.167149Q68.9186 0.20881 69.1257 0.260698Q69.3329 0.312586 69.5372 0.374576Q69.7416 0.436566 69.9426 0.508508Q70.1437 0.58045 70.341 0.662172Q70.5383 0.743893 70.7313 0.835197Q70.9244 0.926501 71.1127 1.02717Q71.301 1.12783 71.4842 1.23762Q71.6674 1.3474 71.8449 1.46605Q72.0225 1.58469 72.194 1.7119Q72.3655 1.83911 72.5306 1.97458Q72.6957 2.11006 72.8539 2.25347Q73.0121 2.39688 73.1631 2.54788Q73.3141 2.69888 73.4576 2.85711Q73.601 3.01534 73.7365 3.18041Q73.8719 3.34549 73.9991 3.51701Q74.1263 3.68853 74.245 3.86609Q74.3636 4.04365 74.4734 4.22682Q74.5832 4.40999 74.6839 4.59832Q74.7845 4.78665 74.8758 4.9797Q74.9671 5.17274 75.0488 5.37004Q75.1306 5.56733 75.2025 5.76839Q75.2745 5.96946 75.3364 6.17381Q75.3984 6.37817 75.4503 6.58531Q75.5022 6.79246 75.5439 7.00191Q75.5855 7.21135 75.6169 7.42259Q75.6482 7.63383 75.6691 7.84635Q75.6901 8.05887 75.7006 8.27216Q75.711 8.48545 75.711 8.699L75.711 8.701Q75.711 8.91455 75.7006 9.12784Q75.6901 9.34113 75.6691 9.55365Q75.6482 9.76617 75.6169 9.97741Q75.5855 10.1886 75.5439 10.3981Q75.5022 10.6075 75.4503 10.8147Q75.3984 11.0218 75.3364 11.2262Q75.2745 11.4305 75.2025 11.6316Q75.1306 11.8327 75.0488 12.03Q74.9671 12.2273 74.8758 12.4203Q74.7845 12.6133 74.6839 12.8017Q74.5832 12.99 74.4734 13.1732Q74.3636 13.3563 74.245 13.5339Q74.1263 13.7115 73.9991 13.883Q73.8719 14.0545 73.7365 14.2196Q73.601 14.3847 73.4576 14.5429Q73.3141 14.7011 73.1631 14.8521Q73.0121 15.0031 72.8539 15.1465Q72.6957 15.2899 72.5306 15.4254Q72.3655 15.5609 72.194 15.6881Q72.0225 15.8153 71.8449 15.934Q71.6674 16.0526 71.4842 16.1624Q71.301 16.2722 71.1127 16.3728Q70.9244 16.4735 70.7313 16.5648Q70.5383 16.6561 70.341 16.7378Q70.1437 16.8195 69.9426 16.8915Q69.7416 16.9634 69.5372 17.0254Q69.3329 17.0874 69.1257 17.1393Q68.9186 17.1912 68.7091 17.2328Q68.4997 17.2745 68.2884 17.3058Q68.0772 17.3372 67.8647 17.3581Q67.6522 17.379 67.4389 17.3895Q67.2256 17.4 67.012 17.4L8.699 17.4Q8.48545 17.4 8.27216 17.3895Q8.05887 17.379 7.84635 17.3581Q7.63383 17.3372 7.42259 17.3058Q7.21135 17.2745 7.00191 17.2328Q6.79246 17.1912 6.58531 17.1393Q6.37817 17.0874 6.17381 17.0254Q5.96946 16.9634 5.76839 16.8915Q5.56733 16.8195 5.37004 16.7378Q5.17274 16.6561 4.9797 16.5648Q4.78665 16.4735 4.59832 16.3728Q4.40999 16.2722 4.22682 16.1624Q4.04365 16.0526 3.86609 15.934Q3.68853 15.8153 3.51701 15.6881Q3.34549 15.5609 3.18041 15.4254Q3.01534 15.2899 2.85711 15.1465Q2.69888 15.0031 2.54788 14.8521Q2.39688 14.7011 2.25347 14.5429Q2.11006 14.3847 1.97458 14.2196Q1.83911 14.0545 1.7119 13.883Q1.58469 13.7115 1.46605 13.5339Q1.3474 13.3563 1.23762 13.1732Q1.12783 12.99 1.02717 12.8017Q0.926501 12.6133 0.835197 12.4203Q0.743893 12.2273 0.662172 12.03Q0.58045 11.8327 0.508508 11.6316Q0.436566 11.4305 0.374576 11.2262Q0.312586 11.0218 0.260698 10.8147Q0.20881 10.6075 0.167149 10.3981Q0.125488 10.1886 0.0941535 9.97741Q0.0628195 9.76617 0.0418881 9.55365Q0.0209566 9.34113 0.0104783 9.12784Q0 8.91455 0 8.701L0 8.699Q0 8.48545 0.0104783 8.27216Q0.0209566 8.05887 0.0418881 7.84635Q0.0628195 7.63383 0.0941535 7.42259Q0.125488 7.21135 0.167149 7.00191Q0.20881 6.79246 0.260698 6.58531Q0.312586 6.37817 0.374576 6.17381Q0.436566 5.96946 0.508508 5.76839Q0.58045 5.56733 0.662172 5.37004Q0.743893 5.17274 0.835197 4.9797Q0.926501 4.78665 1.02717 4.59832Q1.12783 4.40999 1.23762 4.22682Q1.3474 4.04365 1.46605 3.86609Q1.58469 3.68853 1.7119 3.51701Q1.83911 3.34549 1.97458 3.18041Q2.11006 3.01534 2.25347 2.85711Q2.39688 2.69888 2.54788 2.54788Q2.69888 2.39688 2.85711 2.25347Q3.01534 2.11006 3.18041 1.97458Q3.34549 1.83911 3.51701 1.7119Q3.68853 1.58469 3.86609 1.46605Q4.04365 1.3474 4.22682 1.23762Q4.40999 1.12783 4.59832 1.02717Q4.78665 0.926501 4.9797 0.835197Q5.17274 0.743893 5.37004 0.662172Q5.56733 0.58045 5.76839 0.508508Q5.96946 0.436566 6.17381 0.374576Q6.37817 0.312586 6.58531 0.260698Q6.79246 0.20881 7.00191 0.167149Q7.21135 0.125488 7.42259 0.0941535Q7.63383 0.0628195 7.84635 0.0418881Q8.05887 0.0209566 8.27216 0.0104783Q8.48545 0 8.699 0L8.699 0Z" id="Rectangle" fill="#BA4270" fill-rule="evenodd" stroke="none" />
        <path d="M1.34141 4.61274C1.89027 4.61274 2.34324 4.5181 2.70031 4.32883C3.05739 4.13956 3.32281 3.87107 3.49658 3.52336C3.67035 3.17564 3.75723 2.76254 3.75723 2.28404C3.75723 1.82468 3.67512 1.42699 3.51088 1.09098C3.34665 0.754967 3.08864 0.493387 2.73687 0.30624C2.38509 0.119093 1.93053 0.01914 1.3732 0.00638C1.27572 0.00425333 1.1544 0.00265833 1.00924 0.001595C0.864079 0.000531667 0.718918 0 0.573757 0L0.573757 0L0 0L0 4.61274L1.34141 4.61274ZM1.36049 3.8599L0.93454 3.8599L0.93454 0.75284L1.3732 0.75284C1.66352 0.75284 1.91464 0.804943 2.12656 0.90915C2.33847 1.01336 2.50164 1.17764 2.61608 1.402C2.73051 1.62637 2.78773 1.91825 2.78773 2.27766C2.78773 2.66471 2.72309 2.97414 2.59383 3.20595C2.46456 3.43776 2.29238 3.6047 2.07729 3.70678C1.86219 3.80886 1.62326 3.8599 1.36049 3.8599L1.36049 3.8599ZM5.3549 0.84216L5.3549 0.00319L4.45215 0.00319L4.45215 0.84216L5.3549 0.84216ZM5.34536 4.61274L5.34536 1.31428L4.4585 1.31428L4.4585 4.61274L5.34536 4.61274ZM7.43891 4.67654C7.71228 4.67654 7.9528 4.63613 8.16047 4.55532C8.36815 4.47451 8.53026 4.35701 8.64682 4.20283C8.76337 4.04864 8.82165 3.86203 8.82165 3.64298C8.82165 3.56855 8.80946 3.48507 8.78509 3.39256C8.76072 3.30006 8.71675 3.20808 8.65317 3.11663C8.5896 3.02518 8.50007 2.94065 8.38457 2.86303C8.26908 2.7854 8.11915 2.72426 7.93479 2.6796L7.93479 2.6796L7.40076 2.55838C7.22276 2.52223 7.09137 2.47916 7.0066 2.42918C6.92184 2.37921 6.87946 2.31062 6.87946 2.22343C6.87946 2.10646 6.93138 2.01927 7.03521 1.96185C7.13905 1.90443 7.2715 1.87572 7.43255 1.87572C7.58725 1.87572 7.71599 1.91028 7.81876 1.9794C7.92154 2.04851 7.98459 2.14687 8.0079 2.27447L8.0079 2.27447L8.7835 2.27447C8.77926 1.94909 8.65582 1.69708 8.41318 1.51844C8.17054 1.3398 7.84684 1.25048 7.44209 1.25048C7.14329 1.25048 6.89111 1.2962 6.68555 1.38765C6.48 1.4791 6.32477 1.60351 6.21987 1.76088C6.11498 1.91825 6.06253 2.09583 6.06253 2.29361C6.06677 2.56582 6.15683 2.77583 6.33272 2.92364C6.50861 3.07144 6.74171 3.17618 7.03203 3.23785L7.03203 3.23785L7.61056 3.35907C7.7589 3.38672 7.86539 3.42712 7.93002 3.48029C7.99465 3.53346 8.02697 3.6047 8.02697 3.69402C8.02697 3.81099 7.9724 3.89765 7.86327 3.954C7.75413 4.01036 7.61056 4.03854 7.43255 4.03854C7.34779 4.03854 7.25878 4.02419 7.16554 3.99547C7.0723 3.96676 6.98912 3.91838 6.91601 3.85033C6.8429 3.78228 6.79257 3.68977 6.76502 3.5728L6.76502 3.5728L5.96081 3.5728C6.00107 3.83225 6.09432 4.04332 6.24054 4.20602C6.38676 4.3687 6.56582 4.4878 6.77774 4.56329C6.98965 4.63879 7.21004 4.67654 7.43891 4.67654ZM10.3494 4.61274L10.3494 2.50096C10.3494 2.39037 10.378 2.2984 10.4352 2.22503C10.4924 2.15166 10.5634 2.09742 10.6482 2.06234C10.7329 2.02725 10.8177 2.0097 10.9025 2.0097C10.9851 2.0097 11.0662 2.02725 11.1456 2.06234C11.2251 2.09742 11.2913 2.149 11.3443 2.21705C11.3973 2.2851 11.4238 2.36911 11.4238 2.46906L11.4238 2.46906L11.4238 4.61274L12.3488 4.61274L12.3488 2.50096C12.3488 2.38399 12.3785 2.28936 12.4378 2.21705C12.4971 2.14474 12.5692 2.09211 12.6539 2.05914C12.7387 2.02618 12.8224 2.0097 12.9051 2.0097C12.9941 2.0097 13.0783 2.02725 13.1578 2.06234C13.2372 2.09742 13.3029 2.15484 13.3548 2.2346C13.4068 2.31435 13.4327 2.42015 13.4327 2.552L13.4327 2.552L13.4327 4.61274L14.3609 4.61274L14.3609 2.43716C14.3609 2.21386 14.3286 2.02618 14.264 1.87413C14.1993 1.72207 14.114 1.60032 14.0081 1.50887C13.9021 1.41742 13.7861 1.3515 13.66 1.31109C13.5339 1.27068 13.4094 1.25048 13.2865 1.25048C13.0746 1.25048 12.8823 1.30099 12.7096 1.40201C12.5369 1.50302 12.3975 1.62903 12.2916 1.78002C12.228 1.66305 12.1448 1.56576 12.042 1.48814C11.9393 1.41051 11.8296 1.3515 11.713 1.31109C11.5965 1.27068 11.4821 1.25048 11.3697 1.25048C11.1133 1.25048 10.9009 1.30258 10.7324 1.40679C10.5639 1.511 10.4299 1.63541 10.3303 1.78002L10.3303 1.78002L10.3303 1.31428L9.4212 1.31428L9.4212 4.61274L10.3494 4.61274ZM16.0094 0.84216L16.0094 0.00319L15.1067 0.00319L15.1067 0.84216L16.0094 0.84216ZM15.9999 4.61274L15.9999 1.31428L15.113 1.31428L15.113 4.61274L15.9999 4.61274ZM18.0934 4.67654C18.3668 4.67654 18.6073 4.63613 18.815 4.55532C19.0227 4.47451 19.1848 4.35701 19.3014 4.20283C19.4179 4.04864 19.4762 3.86203 19.4762 3.64298C19.4762 3.56855 19.464 3.48507 19.4396 3.39256C19.4153 3.30006 19.3713 3.20808 19.3077 3.11663C19.2441 3.02518 19.1546 2.94065 19.0391 2.86303C18.9236 2.7854 18.7737 2.72426 18.5893 2.6796L18.5893 2.6796L18.0553 2.55838C17.8773 2.52223 17.7459 2.47916 17.6611 2.42918C17.5764 2.37921 17.534 2.31062 17.534 2.22343C17.534 2.10646 17.5859 2.01927 17.6898 1.96185C17.7936 1.90443 17.926 1.87572 18.0871 1.87572C18.2418 1.87572 18.3705 1.91028 18.4733 1.9794C18.5761 2.04851 18.6391 2.14687 18.6624 2.27447L18.6624 2.27447L19.438 2.27447C19.4338 1.94909 19.3104 1.69708 19.0677 1.51844C18.8251 1.3398 18.5014 1.25048 18.0966 1.25048C17.7978 1.25048 17.5456 1.2962 17.3401 1.38765C17.1345 1.4791 16.9793 1.60351 16.8744 1.76088C16.7695 1.91825 16.7171 2.09583 16.7171 2.29361C16.7213 2.56582 16.8114 2.77583 16.9873 2.92364C17.1631 3.07144 17.3962 3.17618 17.6866 3.23785L17.6866 3.23785L18.2651 3.35907C18.4134 3.38672 18.5199 3.42712 18.5846 3.48029C18.6492 3.53346 18.6815 3.6047 18.6815 3.69402C18.6815 3.81099 18.6269 3.89765 18.5178 3.954C18.4087 4.01036 18.2651 4.03854 18.0871 4.03854C18.0023 4.03854 17.9133 4.02419 17.8201 3.99547C17.7268 3.96676 17.6437 3.91838 17.5705 3.85033C17.4974 3.78228 17.4471 3.68977 17.4196 3.5728L17.4196 3.5728L16.6153 3.5728C16.6556 3.83225 16.7489 4.04332 16.8951 4.20602C17.0413 4.3687 17.2204 4.4878 17.4323 4.56329C17.6442 4.63879 17.8646 4.67654 18.0934 4.67654ZM21.3345 4.67654C21.6079 4.67654 21.8484 4.63613 22.0561 4.55532C22.2637 4.47451 22.4259 4.35701 22.5424 4.20283C22.659 4.04864 22.7172 3.86203 22.7172 3.64298C22.7172 3.56855 22.7051 3.48507 22.6807 3.39256C22.6563 3.30006 22.6123 3.20808 22.5488 3.11663C22.4852 3.02518 22.3957 2.94065 22.2802 2.86303C22.1647 2.7854 22.0147 2.72426 21.8304 2.6796L21.8304 2.6796L21.2964 2.55838C21.1184 2.52223 20.987 2.47916 20.9022 2.42918C20.8174 2.37921 20.7751 2.31062 20.7751 2.22343C20.7751 2.10646 20.827 2.01927 20.9308 1.96185C21.0346 1.90443 21.1671 1.87572 21.3281 1.87572C21.4828 1.87572 21.6116 1.91028 21.7144 1.9794C21.8171 2.04851 21.8802 2.14687 21.9035 2.27447L21.9035 2.27447L22.6791 2.27447C22.6749 1.94909 22.5514 1.69708 22.3088 1.51844C22.0661 1.3398 21.7424 1.25048 21.3377 1.25048C21.0389 1.25048 20.7867 1.2962 20.5812 1.38765C20.3756 1.4791 20.2204 1.60351 20.1155 1.76088C20.0106 1.91825 19.9581 2.09583 19.9581 2.29361C19.9624 2.56582 20.0524 2.77583 20.2283 2.92364C20.4042 3.07144 20.6373 3.17618 20.9276 3.23785L20.9276 3.23785L21.5062 3.35907C21.6545 3.38672 21.761 3.42712 21.8256 3.48029C21.8902 3.53346 21.9226 3.6047 21.9226 3.69402C21.9226 3.81099 21.868 3.89765 21.7589 3.954C21.6497 4.01036 21.5062 4.03854 21.3281 4.03854C21.2434 4.03854 21.1544 4.02419 21.0611 3.99547C20.9679 3.96676 20.8847 3.91838 20.8116 3.85033C20.7385 3.78228 20.6882 3.68977 20.6606 3.5728L20.6606 3.5728L19.8564 3.5728C19.8967 3.83225 19.9899 4.04332 20.1361 4.20602C20.2824 4.3687 20.4614 4.4878 20.6733 4.56329C20.8852 4.63879 21.1056 4.67654 21.3345 4.67654Z" transform="translate(26.942234 6.40726)" id="Dismiss" fill="#FBFCFE" stroke="none" />
      </g>
    </g>
  </g>
</svg>