<?xml version="1.0" encoding="utf-8"?>
<svg width="135px" height="38px" viewbox="0 0 135 38" version="1.1" xmlns:xlink="http://www.w3.org/1999/xlink" xmlns="http://www.w3.org/2000/svg">
  <g id="Group-21">
    <g id="Group-23">
      <path d="M4.544 28.64L4.544 20.8L4.608 20.8C5.16267 21.6107 5.872 22.224 6.736 22.64C7.6 23.056 8.544 23.264 9.568 23.264C10.784 23.264 11.8453 23.0293 12.752 22.56C13.6587 22.0907 14.416 21.4613 15.024 20.672C15.632 19.8827 16.0853 18.976 16.384 17.952C16.6827 16.928 16.832 15.8613 16.832 14.752C16.832 13.5787 16.6827 12.4533 16.384 11.376C16.0853 10.2987 15.6267 9.35467 15.008 8.544C14.3893 7.73333 13.6107 7.08267 12.672 6.592C11.7333 6.10133 10.6133 5.856 9.312 5.856C8.288 5.856 7.34933 6.05867 6.496 6.464C5.64267 6.86933 4.93867 7.52 4.384 8.416L4.32 8.416L4.32 6.304L0 6.304L0 28.64L4.544 28.64ZM8.352 19.872C7.62667 19.872 7.008 19.7227 6.496 19.424C5.984 19.1253 5.57333 18.736 5.264 18.256C4.95467 17.776 4.73067 17.216 4.592 16.576C4.45333 15.936 4.384 15.2853 4.384 14.624C4.384 13.9413 4.448 13.28 4.576 12.64C4.704 12 4.92267 11.4347 5.232 10.944C5.54133 10.4533 5.94667 10.0533 6.448 9.744C6.94933 9.43467 7.57333 9.28 8.32 9.28C9.04533 9.28 9.65867 9.43467 10.16 9.744C10.6613 10.0533 11.072 10.4587 11.392 10.96C11.712 11.4613 11.9413 12.032 12.08 12.672C12.2187 13.312 12.288 13.9627 12.288 14.624C12.288 15.2853 12.224 15.936 12.096 16.576C11.968 17.216 11.7493 17.776 11.44 18.256C11.1307 18.736 10.7253 19.1253 10.224 19.424C9.72267 19.7227 9.09867 19.872 8.352 19.872ZM24.2338 23.264C25.2578 23.264 26.2605 23.1147 27.2418 22.816C28.2232 22.5173 29.0765 21.9947 29.8018 21.248C29.8232 21.5253 29.8605 21.7973 29.9138 22.064C29.9672 22.3307 30.0365 22.592 30.1218 22.848L30.1218 22.848L34.7298 22.848C34.5165 22.5067 34.3672 21.9947 34.2818 21.312C34.1965 20.6293 34.1538 19.9147 34.1538 19.168L34.1538 19.168L34.1538 10.56C34.1538 9.55733 33.9298 8.752 33.4818 8.144C33.0338 7.536 32.4578 7.06133 31.7538 6.72C31.0498 6.37867 30.2712 6.14933 29.4178 6.032C28.5645 5.91467 27.7218 5.856 26.8898 5.856C25.9725 5.856 25.0605 5.94667 24.1538 6.128C23.2472 6.30933 22.4312 6.61333 21.7058 7.04C20.9805 7.46667 20.3832 8.032 19.9138 8.736C19.4445 9.44 19.1778 10.3253 19.1138 11.392L19.1138 11.392L23.6578 11.392C23.7432 10.496 24.0418 9.856 24.5538 9.472C25.0658 9.088 25.7698 8.896 26.6658 8.896C27.0712 8.896 27.4498 8.92267 27.8018 8.976C28.1538 9.02933 28.4632 9.136 28.7298 9.296C28.9965 9.456 29.2098 9.68 29.3698 9.968C29.5298 10.256 29.6098 10.6453 29.6098 11.136C29.6312 11.6053 29.4925 11.9627 29.1938 12.208C28.8952 12.4533 28.4898 12.64 27.9778 12.768C27.4658 12.896 26.8792 12.992 26.2178 13.056C25.5565 13.12 24.8845 13.2053 24.2018 13.312C23.5192 13.4187 22.8418 13.5627 22.1698 13.744C21.4978 13.9253 20.9005 14.1973 20.3778 14.56C19.8552 14.9227 19.4285 15.408 19.0978 16.016C18.7672 16.624 18.6018 17.3973 18.6018 18.336C18.6018 19.1893 18.7458 19.9253 19.0338 20.544C19.3218 21.1627 19.7218 21.6747 20.2338 22.08C20.7458 22.4853 21.3432 22.784 22.0258 22.976C22.7085 23.168 23.4445 23.264 24.2338 23.264ZM25.9298 20.256C25.5672 20.256 25.2152 20.224 24.8738 20.16C24.5325 20.096 24.2338 19.984 23.9778 19.824C23.7218 19.664 23.5192 19.4453 23.3698 19.168C23.2205 18.8907 23.1458 18.5493 23.1458 18.144C23.1458 17.7173 23.2205 17.3653 23.3698 17.088C23.5192 16.8107 23.7165 16.5813 23.9618 16.4C24.2072 16.2187 24.4952 16.0747 24.8258 15.968C25.1565 15.8613 25.4925 15.776 25.8338 15.712C26.1965 15.648 26.5592 15.5947 26.9218 15.552C27.2845 15.5093 27.6312 15.456 27.9618 15.392C28.2925 15.328 28.6018 15.248 28.8898 15.152C29.1778 15.056 29.4178 14.9227 29.6098 14.752L29.6098 14.752L29.6098 16.448C29.6098 16.704 29.5832 17.0453 29.5298 17.472C29.4765 17.8987 29.3325 18.32 29.0978 18.736C28.8632 19.152 28.5005 19.5093 28.0098 19.808C27.5192 20.1067 26.8258 20.256 25.9298 20.256ZM39.8917 28.64C41.449 28.64 42.665 28.352 43.5397 27.776C44.4144 27.2 45.097 26.24 45.5877 24.896L52.4997 6.304L47.7957 6.304L44.1797 17.632L44.1157 17.632L40.3717 6.304L35.5397 6.304L41.3317 21.824C41.4597 22.144 41.5237 22.4853 41.5237 22.848C41.5237 23.3387 41.3797 23.7867 41.0917 24.192C40.8037 24.5973 40.361 24.832 39.7637 24.896C39.3157 24.9173 38.8677 24.9067 38.4197 24.864C37.9717 24.8213 37.5344 24.7787 37.1077 24.736L37.1077 28.48C37.577 28.5227 38.041 28.56 38.4997 28.592C38.9584 28.624 39.4224 28.64 39.8917 28.64ZM58.5895 23.232C59.3789 23.232 60.1042 23.136 60.7655 22.944C61.4269 22.752 62.0189 22.4853 62.5415 22.144C63.0642 21.8027 63.5069 21.4133 63.8695 20.976C64.2322 20.5387 64.5095 20.0747 64.7015 19.584L64.7015 19.584L64.7655 19.584L64.7655 20.448C64.7655 20.7893 64.7922 21.104 64.8455 21.392C64.8989 21.68 65.0002 21.9307 65.1495 22.144C65.2989 22.3573 65.5175 22.528 65.8055 22.656C66.0935 22.784 66.4829 22.848 66.9735 22.848C67.3149 22.848 67.6455 22.8053 67.9655 22.72L67.9655 22.72L67.9655 21.696C67.5815 21.76 67.2829 21.792 67.0695 21.792C66.7922 21.792 66.5789 21.7333 66.4295 21.616C66.2802 21.4987 66.1735 21.344 66.1095 21.152C66.0455 20.96 66.0082 20.7467 65.9975 20.512C65.9869 20.2773 65.9815 20.0427 65.9815 19.808L65.9815 19.808L65.9815 10.24C65.9815 8.98133 65.5282 7.96267 64.6215 7.184C63.7149 6.40533 62.2695 6.016 60.2855 6.016C58.3015 6.016 56.7709 6.46933 55.6935 7.376C54.6162 8.28267 54.0349 9.64267 53.9495 11.456L53.9495 11.456L55.1655 11.456C55.2509 9.984 55.7469 8.88533 56.6535 8.16C57.5602 7.43467 58.7495 7.072 60.2215 7.072C61.0535 7.072 61.7575 7.15733 62.3335 7.328C62.9095 7.49867 63.3789 7.73333 63.7415 8.032C64.1042 8.33067 64.3709 8.672 64.5415 9.056C64.7122 9.44 64.7975 9.856 64.7975 10.304C64.7975 10.88 64.7655 11.36 64.7015 11.744C64.6375 12.128 64.4775 12.4427 64.2215 12.688C63.9655 12.9333 63.5869 13.1253 63.0855 13.264C62.5842 13.4027 61.8962 13.504 61.0215 13.568L61.0215 13.568L59.1335 13.728C58.4722 13.792 57.7842 13.8987 57.0695 14.048C56.3549 14.1973 55.7042 14.448 55.1175 14.8C54.5309 15.152 54.0455 15.632 53.6615 16.24C53.2775 16.848 53.0855 17.632 53.0855 18.592C53.0855 20.1707 53.5655 21.3387 54.5255 22.096C55.4855 22.8533 56.8402 23.232 58.5895 23.232ZM58.6215 22.176C57.2775 22.176 56.2215 21.8827 55.4535 21.296C54.6855 20.7093 54.3015 19.808 54.3015 18.592C54.3015 17.824 54.4509 17.2 54.7495 16.72C55.0482 16.24 55.4375 15.8613 55.9175 15.584C56.3975 15.3067 56.9362 15.1093 57.5335 14.992C58.1309 14.8747 58.7282 14.784 59.3255 14.72L59.3255 14.72L61.3735 14.528C62.1202 14.464 62.7975 14.368 63.4055 14.24C64.0135 14.112 64.4669 13.8667 64.7655 13.504L64.7655 13.504L64.7655 16.576C64.7655 16.7893 64.7069 17.2 64.5895 17.808C64.4722 18.416 64.2002 19.0453 63.7735 19.696C63.3469 20.3467 62.7282 20.9227 61.9175 21.424C61.1069 21.9253 60.0082 22.176 58.6215 22.176ZM71.1114 28.736L71.1114 19.424L71.1754 19.424C71.6661 20.768 72.4447 21.7387 73.5114 22.336C74.578 22.9333 75.7941 23.232 77.1594 23.232C78.4181 23.232 79.5114 23.0187 80.4394 22.592C81.3674 22.1653 82.1354 21.5733 82.7434 20.816C83.3514 20.0587 83.8047 19.1573 84.1034 18.112C84.4021 17.0667 84.5514 15.9147 84.5514 14.656C84.5514 13.504 84.4021 12.4053 84.1034 11.36C83.8047 10.3147 83.3514 9.39733 82.7434 8.608C82.1354 7.81867 81.3674 7.18933 80.4394 6.72C79.5114 6.25067 78.4181 6.016 77.1594 6.016C76.2634 6.016 75.4687 6.15467 74.7754 6.432C74.0821 6.70933 73.4901 7.056 72.9994 7.472C72.5087 7.888 72.1141 8.34133 71.8154 8.832C71.5167 9.32267 71.3034 9.77067 71.1754 10.176L71.1754 10.176L71.1114 10.176L71.1114 6.4L69.8954 6.4L69.8954 28.736L71.1114 28.736ZM77.1594 22.176C76.0074 22.176 75.0421 21.968 74.2634 21.552C73.4847 21.136 72.8661 20.5813 72.4074 19.888C71.9487 19.1947 71.6234 18.3947 71.4314 17.488C71.2394 16.5813 71.1434 15.6373 71.1434 14.656C71.1434 13.6747 71.2501 12.7307 71.4634 11.824C71.6767 10.9173 72.0234 10.112 72.5034 9.408C72.9834 8.704 73.6074 8.13867 74.3754 7.712C75.1434 7.28533 76.0714 7.072 77.1594 7.072C78.2687 7.072 79.2127 7.29067 79.9914 7.728C80.7701 8.16533 81.4047 8.74133 81.8954 9.456C82.3861 10.1707 82.7487 10.9813 82.9834 11.888C83.2181 12.7947 83.3354 13.7173 83.3354 14.656C83.3354 15.68 83.2127 16.6453 82.9674 17.552C82.7221 18.4587 82.3487 19.2533 81.8474 19.936C81.3461 20.6187 80.7061 21.1627 79.9274 21.568C79.1487 21.9733 78.2261 22.176 77.1594 22.176ZM88.6572 3.296L88.6572 0L87.4412 0L87.4412 3.296L88.6572 3.296ZM88.6572 22.848L88.6572 6.4L87.4412 6.4L87.4412 22.848L88.6572 22.848Z" transform="translate(46 5.2941356)" id="payapi" fill="#FBFCFE" stroke="none" />
      <g id="Group-22">
        <path d="M3 6C4.65685 6 6 4.65685 6 3C6 1.34315 4.65685 0 3 0C1.34315 0 0 1.34315 0 3C0 4.65685 1.34315 6 3 6Z" transform="matrix(0.70710677 0.70710677 -0.70710677 0.70710677 19.142136 0.75736)" id="Oval" fill="#FBFCFE" fill-rule="evenodd" stroke="none" />
        <path d="M3 6C4.65685 6 6 4.65685 6 3C6 1.34315 4.65685 0 3 0C1.34315 0 0 1.34315 0 3C0 4.65685 1.34315 6 3 6Z" transform="matrix(0.70710677 0.70710677 -0.70710677 0.70710677 26.213203 7.8284273)" id="Oval-Copy-6" fill="#FBFCFE" fill-rule="evenodd" stroke="none" />
        <path d="M3 6C4.65685 6 6 4.65685 6 3C6 1.34315 4.65685 0 3 0C1.34315 0 0 1.34315 0 3C0 4.65685 1.34315 6 3 6Z" transform="matrix(0.70710677 0.70710677 -0.70710677 0.70710677 33.28427 14.899495)" id="Oval-Copy-7" fill="#FBFCFE" fill-rule="evenodd" stroke="none" />
        <path d="M3 6C4.65685 6 6 4.65685 6 3C6 1.34315 4.65685 0 3 0C1.34315 0 0 1.34315 0 3C0 4.65685 1.34315 6 3 6Z" transform="matrix(0.70710677 0.70710677 -0.70710677 0.70710677 12.071068 7.8284273)" id="Oval-Copy-10" fill="#FBFCFE" fill-rule="evenodd" stroke="none" />
        <path d="M3 6C4.65685 6 6 4.65685 6 3C6 1.34315 4.65685 0 3 0C1.34315 0 0 1.34315 0 3C0 4.65685 1.34315 6 3 6Z" transform="matrix(0.70710677 0.70710677 -0.70710677 0.70710677 19.142136 14.899495)" id="Oval-Copy-9" fill="#FBFCFE" fill-opacity="0.5" fill-rule="evenodd" stroke="none" />
        <path d="M3 6C4.65685 6 6 4.65685 6 3C6 1.34315 4.65685 0 3 0C1.34315 0 0 1.34315 0 3C0 4.65685 1.34315 6 3 6Z" transform="matrix(0.70710677 0.70710677 -0.70710677 0.70710677 26.213203 21.970562)" id="Oval-Copy-8" fill="#FBFCFE" fill-opacity="0.5" fill-rule="evenodd" stroke="none" />
        <path d="M3 6C4.65685 6 6 4.65685 6 3C6 1.34315 4.65685 0 3 0C1.34315 0 0 1.34315 0 3C0 4.65685 1.34315 6 3 6Z" transform="matrix(0.70710677 0.70710677 -0.70710677 0.70710677 5 14.899495)" id="Oval-Copy-13" fill="#FBFCFE" fill-rule="evenodd" stroke="none" />
        <path d="M3 6C4.65685 6 6 4.65685 6 3C6 1.34315 4.65685 0 3 0C1.34315 0 0 1.34315 0 3C0 4.65685 1.34315 6 3 6Z" transform="matrix(0.70710677 0.70710677 -0.70710677 0.70710677 12.071068 21.970562)" id="Oval-Copy-12" fill="#FBFCFE" fill-opacity="0.5" fill-rule="evenodd" stroke="none" />
        <path d="M3 6C4.65685 6 6 4.65685 6 3C6 1.34315 4.65685 0 3 0C1.34315 0 0 1.34315 0 3C0 4.65685 1.34315 6 3 6Z" transform="matrix(0.70710677 0.70710677 -0.70710677 0.70710677 19.142136 29.04163)" id="Oval-Copy-11" fill="#FBFCFE" fill-opacity="0.25" fill-rule="evenodd" stroke="none" />
      </g>
    </g>
  </g>
</svg>