<?xml version="1.0" encoding="utf-8"?>
<svg width="134px" height="37px" viewbox="0 0 134 37" version="1.1" xmlns:xlink="http://www.w3.org/1999/xlink" xmlns="http://www.w3.org/2000/svg">
  <g id="Group-21">
    <path d="M4.544 28.64L4.544 20.8L4.608 20.8C5.16267 21.6106 5.872 22.224 6.736 22.64C7.6 23.056 8.544 23.264 9.568 23.264C10.784 23.264 11.8453 23.0293 12.752 22.56C13.6587 22.0906 14.416 21.4613 15.024 20.672C15.632 19.8826 16.0853 18.976 16.384 17.952C16.6827 16.928 16.832 15.8613 16.832 14.752C16.832 13.5786 16.6827 12.4533 16.384 11.376C16.0853 10.2986 15.6267 9.35462 15.008 8.54396C14.3893 7.73329 13.6107 7.08262 12.672 6.59196C11.7333 6.10129 10.6133 5.85596 9.312 5.85596C8.288 5.85596 7.34933 6.05862 6.496 6.46396C5.64267 6.86929 4.93867 7.51996 4.384 8.41596L4.32 8.41596L4.32 6.30396L0 6.30396L0 28.64L4.544 28.64ZM8.35203 19.8718C7.6267 19.8718 7.00803 19.7225 6.49603 19.4238C5.98403 19.1251 5.57337 18.7358 5.26403 18.2558C4.9547 17.7758 4.7307 17.2158 4.59203 16.5758C4.45337 15.9358 4.38403 15.2851 4.38403 14.6238C4.38403 13.9411 4.44803 13.2798 4.57603 12.6398C4.70403 11.9998 4.9227 11.4345 5.23203 10.9438C5.54137 10.4531 5.9467 10.0531 6.44803 9.74378C6.94937 9.43445 7.57337 9.27979 8.32003 9.27979C9.04537 9.27979 9.6587 9.43445 10.16 9.74378C10.6614 10.0531 11.072 10.4585 11.392 10.9598C11.712 11.4611 11.9414 12.0318 12.08 12.6718C12.2187 13.3118 12.288 13.9625 12.288 14.6238C12.288 15.2851 12.224 15.9358 12.096 16.5758C11.968 17.2158 11.7494 17.7758 11.44 18.2558C11.1307 18.7358 10.7254 19.1251 10.224 19.4238C9.7227 19.7225 9.0987 19.8718 8.35203 19.8718ZM24.2338 23.264C25.2578 23.264 26.2605 23.1146 27.2418 22.816C28.2231 22.5173 29.0765 21.9946 29.8018 21.248C29.8231 21.5253 29.8605 21.7973 29.9138 22.064C29.9671 22.3306 30.0365 22.592 30.1218 22.848L30.1218 22.848L34.7298 22.848C34.5165 22.5066 34.3671 21.9946 34.2818 21.312C34.1965 20.6293 34.1538 19.9146 34.1538 19.168L34.1538 19.168L34.1538 10.56C34.1538 9.55729 33.9298 8.75196 33.4818 8.14396C33.0338 7.53596 32.4578 7.06129 31.7538 6.71996C31.0498 6.37862 30.2711 6.14929 29.4178 6.03196C28.5645 5.91462 27.7218 5.85596 26.8898 5.85596C25.9725 5.85596 25.0605 5.94662 24.1538 6.12796C23.2471 6.30929 22.4311 6.61329 21.7058 7.03996C20.9805 7.46662 20.3831 8.03196 19.9138 8.73596C19.4445 9.43996 19.1778 10.3253 19.1138 11.392L19.1138 11.392L23.6578 11.392C23.7431 10.496 24.0418 9.85596 24.5538 9.47196C25.0658 9.08796 25.7698 8.89596 26.6658 8.89596C27.0711 8.89596 27.4498 8.92262 27.8018 8.97596C28.1538 9.02929 28.4631 9.13596 28.7298 9.29596C28.9965 9.45596 29.2098 9.67996 29.3698 9.96796C29.5298 10.256 29.6098 10.6453 29.6098 11.136C29.6311 11.6053 29.4925 11.9626 29.1938 12.208C28.8951 12.4533 28.4898 12.64 27.9778 12.768C27.4658 12.896 26.8791 12.992 26.2178 13.056C25.5565 13.12 24.8845 13.2053 24.2018 13.312C23.5191 13.4186 22.8418 13.5626 22.1698 13.744C21.4978 13.9253 20.9005 14.1973 20.3778 14.56C19.8551 14.9226 19.4285 15.408 19.0978 16.016C18.7671 16.624 18.6018 17.3973 18.6018 18.336C18.6018 19.1893 18.7458 19.9253 19.0338 20.544C19.3218 21.1626 19.7218 21.6746 20.2338 22.08C20.7458 22.4853 21.3431 22.784 22.0258 22.976C22.7085 23.168 23.4445 23.264 24.2338 23.264ZM25.9299 20.256C25.5672 20.256 25.2152 20.224 24.8739 20.16C24.5325 20.096 24.2339 19.984 23.9779 19.824C23.7219 19.664 23.5192 19.4453 23.3699 19.168C23.2205 18.8906 23.1459 18.5493 23.1459 18.144C23.1459 17.7173 23.2205 17.3653 23.3699 17.088C23.5192 16.8106 23.7165 16.5813 23.9619 16.4C24.2072 16.2186 24.4952 16.0746 24.8259 15.968C25.1565 15.8613 25.4925 15.776 25.8339 15.712C26.1965 15.648 26.5592 15.5946 26.9219 15.552C27.2845 15.5093 27.6312 15.456 27.9619 15.392C28.2925 15.328 28.6019 15.248 28.8899 15.152C29.1779 15.056 29.4179 14.9226 29.6099 14.752L29.6099 14.752L29.6099 16.448C29.6099 16.704 29.5832 17.0453 29.5299 17.472C29.4765 17.8986 29.3325 18.32 29.0979 18.736C28.8632 19.152 28.5005 19.5093 28.0099 19.808C27.5192 20.1066 26.8259 20.256 25.9299 20.256ZM39.8917 28.6402C41.449 28.6402 42.665 28.3522 43.5397 27.7762C44.4143 27.2002 45.097 26.2402 45.5877 24.8962L52.4997 6.3042L47.7957 6.3042L44.1797 17.6322L44.1157 17.6322L40.3717 6.3042L35.5397 6.3042L41.3317 21.8242C41.4597 22.1442 41.5237 22.4855 41.5237 22.8482C41.5237 23.3389 41.3797 23.7869 41.0917 24.1922C40.8037 24.5975 40.361 24.8322 39.7637 24.8962C39.3157 24.9175 38.8677 24.9069 38.4197 24.8642C37.9717 24.8215 37.5343 24.7789 37.1077 24.7362L37.1077 28.4802C37.577 28.5229 38.041 28.5602 38.4997 28.5922C38.9583 28.6242 39.4223 28.6402 39.8917 28.6402ZM58.5896 23.2321C59.3789 23.2321 60.1042 23.1361 60.7656 22.9441C61.4269 22.7521 62.0189 22.4854 62.5416 22.1441C63.0642 21.8028 63.5069 21.4134 63.8696 20.9761C64.2322 20.5388 64.5096 20.0748 64.7016 19.5841L64.7016 19.5841L64.7656 19.5841L64.7656 20.4481C64.7656 20.7894 64.7922 21.1041 64.8456 21.3921C64.8989 21.6801 65.0002 21.9308 65.1496 22.1441C65.2989 22.3574 65.5176 22.5281 65.8056 22.6561C66.0936 22.7841 66.4829 22.8481 66.9736 22.8481C67.3149 22.8481 67.6456 22.8054 67.9656 22.7201L67.9656 22.7201L67.9656 21.6961C67.5816 21.7601 67.2829 21.7921 67.0696 21.7921C66.7922 21.7921 66.5789 21.7334 66.4296 21.6161C66.2802 21.4988 66.1736 21.3441 66.1096 21.1521C66.0456 20.9601 66.0082 20.7468 65.9976 20.5121C65.9869 20.2774 65.9816 20.0428 65.9816 19.8081L65.9816 19.8081L65.9816 10.2401C65.9816 8.98145 65.5282 7.96278 64.6216 7.18411C63.7149 6.40545 62.2696 6.01611 60.2856 6.01611C58.3016 6.01611 56.7709 6.46945 55.6936 7.37611C54.6162 8.28278 54.0349 9.64278 53.9496 11.4561L53.9496 11.4561L55.1656 11.4561C55.2509 9.98411 55.7469 8.88545 56.6536 8.16011C57.5602 7.43478 58.7496 7.07211 60.2216 7.07211C61.0536 7.07211 61.7576 7.15745 62.3336 7.32811C62.9096 7.49878 63.3789 7.73345 63.7416 8.03211C64.1042 8.33078 64.3709 8.67211 64.5416 9.05611C64.7122 9.44011 64.7976 9.85611 64.7976 10.3041C64.7976 10.8801 64.7656 11.3601 64.7016 11.7441C64.6376 12.1281 64.4776 12.4428 64.2216 12.6881C63.9656 12.9334 63.5869 13.1254 63.0856 13.2641C62.5842 13.4028 61.8962 13.5041 61.0216 13.5681L61.0216 13.5681L59.1336 13.7281C58.4722 13.7921 57.7842 13.8988 57.0696 14.0481C56.3549 14.1974 55.7042 14.4481 55.1176 14.8001C54.5309 15.1521 54.0456 15.6321 53.6616 16.2401C53.2776 16.8481 53.0856 17.6321 53.0856 18.5921C53.0856 20.1708 53.5656 21.3388 54.5256 22.0961C55.4856 22.8534 56.8402 23.2321 58.5896 23.2321ZM58.6215 22.1759C57.2775 22.1759 56.2215 21.8826 55.4535 21.2959C54.6855 20.7092 54.3015 19.8079 54.3015 18.5919C54.3015 17.8239 54.4508 17.1999 54.7495 16.7199C55.0482 16.2399 55.4375 15.8612 55.9175 15.5839C56.3975 15.3066 56.9362 15.1092 57.5335 14.9919C58.1308 14.8746 58.7282 14.7839 59.3255 14.7199L59.3255 14.7199L61.3735 14.5279C62.1202 14.4639 62.7975 14.3679 63.4055 14.2399C64.0135 14.1119 64.4669 13.8666 64.7655 13.5039L64.7655 13.5039L64.7655 16.5759C64.7655 16.7892 64.7068 17.1999 64.5895 17.8079C64.4722 18.4159 64.2002 19.0452 63.7735 19.6959C63.3468 20.3466 62.7282 20.9226 61.9175 21.4239C61.1068 21.9252 60.0082 22.1759 58.6215 22.1759ZM71.1114 28.7361L71.1114 19.4241L71.1754 19.4241C71.6661 20.7681 72.4447 21.7388 73.5114 22.3361C74.578 22.9334 75.7941 23.2321 77.1594 23.2321C78.4181 23.2321 79.5114 23.0188 80.4394 22.5921C81.3674 22.1654 82.1354 21.5734 82.7434 20.8161C83.3514 20.0588 83.8047 19.1574 84.1034 18.1121C84.4021 17.0668 84.5514 15.9148 84.5514 14.6561C84.5514 13.5041 84.4021 12.4054 84.1034 11.3601C83.8047 10.3148 83.3514 9.39745 82.7434 8.60811C82.1354 7.81878 81.3674 7.18945 80.4394 6.72011C79.5114 6.25078 78.4181 6.01611 77.1594 6.01611C76.2634 6.01611 75.4687 6.15478 74.7754 6.43211C74.0821 6.70945 73.4901 7.05611 72.9994 7.47211C72.5087 7.88811 72.1141 8.34145 71.8154 8.83211C71.5167 9.32278 71.3034 9.77078 71.1754 10.1761L71.1754 10.1761L71.1114 10.1761L71.1114 6.40011L69.8954 6.40011L69.8954 28.7361L71.1114 28.7361ZM77.1594 22.1758C76.0074 22.1758 75.0421 21.9678 74.2634 21.5518C73.4848 21.1358 72.8661 20.5811 72.4074 19.8878C71.9488 19.1944 71.6234 18.3944 71.4314 17.4878C71.2394 16.5811 71.1434 15.6371 71.1434 14.6558C71.1434 13.6744 71.2501 12.7304 71.4634 11.8238C71.6768 10.9171 72.0234 10.1118 72.5034 9.40778C72.9834 8.70378 73.6074 8.13844 74.3754 7.71178C75.1434 7.28511 76.0714 7.07178 77.1594 7.07178C78.2688 7.07178 79.2128 7.29044 79.9914 7.72778C80.7701 8.16511 81.4048 8.74111 81.8954 9.45578C82.3861 10.1704 82.7488 10.9811 82.9834 11.8878C83.2181 12.7944 83.3354 13.7171 83.3354 14.6558C83.3354 15.6798 83.2128 16.6451 82.9674 17.5518C82.7221 18.4584 82.3488 19.2531 81.8474 19.9358C81.3461 20.6184 80.7061 21.1624 79.9274 21.5678C79.1488 21.9731 78.2261 22.1758 77.1594 22.1758ZM88.6573 3.296L88.6573 0L87.4413 0L87.4413 3.296L88.6573 3.296ZM88.6573 22.8479L88.6573 6.3999L87.4413 6.3999L87.4413 22.8479L88.6573 22.8479Z" transform="translate(45.242676 4.536621)" id="payapi" fill="#36536B" stroke="none" />
    <g id="Group-3">
      <path d="M3 6C4.65685 6 6 4.65685 6 3C6 1.34315 4.65685 0 3 0C1.34315 0 0 1.34315 0 3C0 4.65685 1.34315 6 3 6Z" transform="matrix(0.70710677 0.70710677 -0.70710677 0.70710677 18.384766 0)" id="Oval" fill="#36536B" fill-rule="evenodd" stroke="none" />
      <path d="M3 6C4.65685 6 6 4.65685 6 3C6 1.34315 4.65685 0 3 0C1.34315 0 0 1.34315 0 3C0 4.65685 1.34315 6 3 6Z" transform="matrix(0.70710677 0.70710677 -0.70710677 0.70710677 25.455933 7.071289)" id="Oval-Copy-6" fill="#36536B" fill-rule="evenodd" stroke="none" />
      <path d="M3 6C4.65685 6 6 4.65685 6 3C6 1.34315 4.65685 0 3 0C1.34315 0 0 1.34315 0 3C0 4.65685 1.34315 6 3 6Z" transform="matrix(0.70710677 0.70710677 -0.70710677 0.70710677 32.526978 14.14209)" id="Oval-Copy-7" fill="#36536B" fill-rule="evenodd" stroke="none" />
      <path d="M3 6C4.65685 6 6 4.65685 6 3C6 1.34315 4.65685 0 3 0C1.34315 0 0 1.34315 0 3C0 4.65685 1.34315 6 3 6Z" transform="matrix(0.70710677 0.70710677 -0.70710677 0.70710677 11.313721 7.071289)" id="Oval-Copy-10" fill="#36536B" fill-rule="evenodd" stroke="none" />
      <path d="M3 6C4.65685 6 6 4.65685 6 3C6 1.34315 4.65685 0 3 0C1.34315 0 0 1.34315 0 3C0 4.65685 1.34315 6 3 6Z" transform="matrix(0.70710677 0.70710677 -0.70710677 0.70710677 18.384766 14.14209)" id="Oval-Copy-9" fill="#36536B" fill-opacity="0.5" fill-rule="evenodd" stroke="none" />
      <path d="M3 6C4.65685 6 6 4.65685 6 3C6 1.34315 4.65685 0 3 0C1.34315 0 0 1.34315 0 3C0 4.65685 1.34315 6 3 6Z" transform="matrix(0.70710677 0.70710677 -0.70710677 0.70710677 25.455933 21.213379)" id="Oval-Copy-8" fill="#36536B" fill-opacity="0.5" fill-rule="evenodd" stroke="none" />
      <path d="M3 6C4.65685 6 6 4.65685 6 3C6 1.34315 4.65685 0 3 0C1.34315 0 0 1.34315 0 3C0 4.65685 1.34315 6 3 6Z" transform="matrix(0.70710677 0.70710677 -0.70710677 0.70710677 4.242676 14.14209)" id="Oval-Copy-13" fill="#36536B" fill-rule="evenodd" stroke="none" />
      <path d="M3 6C4.65685 6 6 4.65685 6 3C6 1.34315 4.65685 0 3 0C1.34315 0 0 1.34315 0 3C0 4.65685 1.34315 6 3 6Z" transform="matrix(0.70710677 0.70710677 -0.70710677 0.70710677 11.313721 21.213379)" id="Oval-Copy-12" fill="#36536B" fill-opacity="0.5" fill-rule="evenodd" stroke="none" />
      <path d="M3 6C4.65685 6 6 4.65685 6 3C6 1.34315 4.65685 0 3 0C1.34315 0 0 1.34315 0 3C0 4.65685 1.34315 6 3 6Z" transform="matrix(0.70710677 0.70710677 -0.70710677 0.70710677 18.384766 28.28418)" id="Oval-Copy-11" fill="#36536B" fill-opacity="0.25" fill-rule="evenodd" stroke="none" />
    </g>
  </g>
</svg>